<?xml version="1.0" encoding="utf-8"?>
<!-- Generator: Adobe Illustrator 16.0.0, SVG Export Plug-In . SVG Version: 6.00 Build 0)  -->
<!DOCTYPE svg PUBLIC "-//W3C//DTD SVG 1.1//EN" "http://www.w3.org/Graphics/SVG/1.1/DTD/svg11.dtd">
<svg version="1.1" xmlns="http://www.w3.org/2000/svg" xmlns:xlink="http://www.w3.org/1999/xlink" x="0px" y="0px" width="800px"
	 height="800px" viewBox="0 0 800 800" enable-background="new 0 0 800 800" xml:space="preserve">
<g id="person_three">
	
		<path fill="#FFFFFF" stroke="#27AAE1" stroke-width="7" stroke-linecap="round" stroke-linejoin="round" stroke-miterlimit="10" d="
		M642.579,521.945c2.749,0,5.369,1.16,7.762,3.25c2.396-2.09,5.016-3.25,7.763-3.25c11.32,0,20.498,19.564,20.498,43.701
		s-9.178,43.701-20.498,43.701c-2.749,0-5.367-1.16-7.763-3.25c-2.393,2.09-5.013,3.25-7.762,3.25
		c-11.318,0-20.497-19.564-20.497-43.701S631.261,521.945,642.579,521.945z"/>
	
		<circle fill="#FFFFFF" stroke="#27AAE1" stroke-width="7" stroke-linecap="round" stroke-linejoin="round" stroke-miterlimit="10" cx="648.994" cy="496.086" r="33.571"/>
	<rect x="574.494" y="565.646" fill="#FFFFFF" width="158.075" height="55.412"/>
</g>
<g id="Layer_1">
	
		<rect x="85.494" y="270.481" fill="#333333" stroke="#000000" stroke-width="5" stroke-linecap="round" stroke-linejoin="round" stroke-miterlimit="10" width="277" height="303"/>
	
		<rect x="85.994" y="101.481" fill="#333333" stroke="#000000" stroke-width="5" stroke-linecap="round" stroke-linejoin="round" stroke-miterlimit="10" width="277" height="180.411"/>
	<rect x="572.161" y="414.652" width="143.334" height="21.496"/>
	<g>
		<rect x="572.161" y="417.652" fill="none" width="153.333" height="20.828"/>
		<text transform="matrix(1 0 0 1 612.3418 430.4316)" fill="#BCBEC0" font-family="'MyriadPro-Regular'" font-size="18">Instructor</text>
	</g>
	
		<rect x="85.494" y="101.481" fill="none" stroke="#000000" stroke-width="20" stroke-linecap="round" stroke-linejoin="round" stroke-miterlimit="10" width="640" height="472"/>
	
		<rect x="574.494" y="438.48" fill="none" stroke="#000000" stroke-width="5" stroke-linecap="round" stroke-linejoin="round" stroke-miterlimit="10" width="151" height="135"/>
	<rect x="110.494" y="338.573" fill="none" width="228" height="211.49"/>
	<text transform="matrix(1 0 0 1 110.4941 354.3325)"><tspan x="0" y="0" fill="#86C440" font-family="'Monaco'" font-size="20">&lt;</tspan><tspan x="12.002" y="0" fill="#86C440" font-family="'Monaco'" font-size="16">h2 id=”title”&gt;</tspan><tspan x="0" y="19.2" fill="#86C440" font-family="'Monaco'" font-size="16">    Paul’s Website</tspan><tspan x="0" y="38.4" fill="#86C440" font-family="'Monaco'" font-size="16">&lt;/h2&gt;</tspan><tspan x="0" y="76.8" fill="#86C440" font-family="'Monaco'" font-size="16">&lt;style&gt;</tspan><tspan x="0" y="96" fill="#86C440" font-family="'Monaco'" font-size="16">  #title {</tspan><tspan x="0" y="115.201" fill="#86C440" font-family="'Monaco'" font-size="16">    color: red;</tspan><tspan x="0" y="134.4" fill="#86C440" font-family="'Monaco'" font-size="16">    text-align: center;</tspan><tspan x="0" y="158.4" fill="#86C440" font-family="'Monaco'" font-size="20">  }</tspan><tspan x="0" y="177.6" fill="#86C440" font-family="'Monaco'" font-size="16">&lt;/style&gt;</tspan></text>
	<rect x="366.588" y="154.188" fill="none" width="348.907" height="74.996"/>
	<text transform="matrix(1 0 0 1 468.7051 171.9385)" fill="#DA1C5C" font-family="'MyriadPro-Regular'" font-size="25">Pauls Website</text>
	<rect x="93.6" y="116.581" fill="none" width="268.895" height="24.5"/>
	<text transform="matrix(1 0 0 1 163.4478 130.7808)" fill="#BCBEC0" font-family="'MyriadPro-Regular'" font-size="20">Instructor Code</text>
	<rect x="109.586" y="146.481" fill="none" width="228" height="128.539"/>
	<text transform="matrix(1 0 0 1 109.5859 159.0889)"><tspan x="0" y="0" fill="#86C440" font-family="'Monaco'" font-size="16">&lt;h2 id=”title”&gt;</tspan><tspan x="0" y="19.2" fill="#86C440" font-family="'Monaco'" font-size="16">    Your Website title</tspan><tspan x="0" y="38.4" fill="#86C440" font-family="'Monaco'" font-size="16">&lt;/h2&gt;</tspan><tspan x="0" y="81.6" fill="#86C440" font-family="'Monaco'" font-size="16">&lt;style&gt;</tspan><tspan x="0" y="100.8" fill="#86C440" font-family="'Monaco'" font-size="16"> change the colo</tspan><tspan x="153.625" y="100.8" fill="#86C440" font-family="'Monaco'" font-size="16" letter-spacing="-1">r</tspan><tspan x="161.947" y="100.8" fill="#86C440" font-family="'Monaco'" font-size="16"> here</tspan></text>
	<rect x="93.6" y="289.892" fill="none" width="268.895" height="24.5"/>
	<text transform="matrix(1 0 0 1 170.7275 304.0918)" fill="#BCBEC0" font-family="'MyriadPro-Regular'" font-size="20">Student Code</text>
	<rect x="362.507" y="116.581" fill="none" width="362.987" height="24.5"/>
	<text transform="matrix(1 0 0 1 510.8809 130.7803)" fill="#939598" font-family="'MyriadPro-Regular'" font-size="20">Preview</text>
</g>
<g id="pointer">
	<polygon fill="none" stroke="#A7A9AC" stroke-width="3" stroke-miterlimit="10" points="237.173,402.334 221.789,390.14 
		218.921,409.559 224.327,407.418 228.378,417.652 235.816,414.707 231.766,404.475 	"/>
	<polygon opacity="0.7" fill="none" stroke="#A7A9AC" stroke-width="3" stroke-miterlimit="10" points="246.299,402.334 
		230.915,390.14 228.047,409.559 233.453,407.418 237.504,417.652 244.942,414.707 240.892,404.475 	"/>
	<polygon opacity="0.5" fill="none" stroke="#A7A9AC" stroke-width="3" stroke-miterlimit="10" points="255.425,406.662 
		240.041,394.469 237.173,413.889 242.579,411.748 246.63,421.98 254.068,419.037 250.018,408.803 	"/>
	<polygon opacity="0.3" fill="none" stroke="#A7A9AC" stroke-width="3" stroke-miterlimit="10" points="264.551,413.09 
		249.167,400.896 246.299,420.314 251.705,418.174 255.756,428.408 263.194,425.463 259.144,415.23 	"/>
</g>
</svg>
