<?xml version="1.0" encoding="utf-8"?>
<!-- Generator: Adobe Illustrator 16.0.0, SVG Export Plug-In . SVG Version: 6.00 Build 0)  -->
<!DOCTYPE svg PUBLIC "-//W3C//DTD SVG 1.1//EN" "http://www.w3.org/Graphics/SVG/1.1/DTD/svg11.dtd">
<svg version="1.1" xmlns="http://www.w3.org/2000/svg" xmlns:xlink="http://www.w3.org/1999/xlink" x="0px" y="0px" width="800px"
	 height="974.577px" viewBox="0 0 800 974.577" enable-background="new 0 0 800 974.577" xml:space="preserve">
<g id="Layer_2">
	<g>
		<g>
			<path fill="#FFFFFF" stroke="#000000" stroke-width="5" d="M710.145,187.488l6.167-6.167l4.935-6.167l1.233-4.934l9.867-8.634
				l7.4-7.401l-2.467-3.7l-4.934-1.233l-2.467-4.934l-4.935-1.233l-2.466-3.7l-2.467-11.102l-3.701-7.4l-4.934-1.233l-6.167,4.934
				l-2.468-1.233h-3.699l-3.701,9.868v9.867l1.234,11.101l-3.701,7.401l-4.934,4.934v3.7l-9.867,1.233l-9.867,3.7l-16.035,4.934
				l-16.034,18.502l3.699,2.467v8.634l-11.101,8.634l-19.735,1.234l3.701,11.101l-8.634,7.4l-9.869,9.868l-12.333,8.634
				l-7.401,2.467h-7.4l-4.935-2.467v-7.4l7.401-8.635v-7.4l-2.467-4.934l-2.467-9.868l-2.468-2.466l-2.466,2.466l-7.401,8.635
				l-2.467-1.233l-1.232-3.701l4.933-7.4l1.233-1.233v-7.4l-2.467-2.467v-4.934l-3.699-1.233l-4.935-1.233l-6.167-3.7h-2.467
				l-3.701,2.467v4.934l-1.233,1.233l-1.233,4.934l-1.232,3.7h-4.935l-1.233,2.467v6.167l-2.467,4.935v8.634l2.467,4.934l2.468,3.7
				v3.7v8.635l-2.468,4.934l-0.918,4.863l-0.315,0.07l-2.467,2.467h-6.167l-7.325-13.429c0.092-0.002,0.155-0.001,0.164,0.005
				l-1.473-23.579l2.467-4.934l1.232-8.635l1.233-6.167l-3.699,4.934l-4.935,4.934v-4.934l2.468-2.467l-2.468-12.334l1.234,3.7
				l1.233,4.934l7.399-11.101l3.701-1.233l2.467-3.701h4.934l6.168-3.7l3.699,1.234l9.867-1.234l1.234-3.699l-1.234-4.935
				l-7.4,1.233h-3.7l-1.232-3.7l-11.101,3.7l-3.701,3.701h-8.634l-6.168-4.935l-7.4,1.233v-3.7l3.701-4.934l-2.468-1.233
				l-11.101,9.867l-11.101,4.934l-8.635-1.232l-3.7-1.234l-7.4,2.467l-3.7,2.467l9.867-11.101l8.634-8.635l11.101-6.166h-9.867
				l-2.467-2.468h-3.7l-2.467,1.233h-6.167l-3.7-2.467l-3.701,1.233l-2.467-3.7l-7.4-1.233l-2.467,1.233h-3.7l-11.101-7.4h-25.903
				l-39.47-1.233l-37.004-2.467l-29.602-3.7l-34.537-4.935l-44.403-8.634l-20.969-4.934l-8.709-2.178l0.075-0.289l-41.938-12.334
				l-18.501-7.401l1.233,7.401l-2.468,4.934l1.234,8.634l-3.7,3.7l-2.468,7.4l-4.934-1.233l1.233-6.167l3.7-4.934l-2.466-4.934
				c0,0-11.102-11.102-12.335-11.102s-3.7,2.468-3.7,2.468v6.167l-1.233,12.334v9.868l-2.505,7.4l7.438,1.233l1.233,2.467l3.7,3.7
				l-2.467,6.167l3.7,2.467h-1.233l-3.7-2.467l1.233-2.467l1.233-3.7l-3.7-3.7l-1.233-2.467l-7.401-1.233l-3.7,12.334
				l-12.334,25.902l-9.867,14.802v4.934v3.7v3.7l-1.234,13.568l-4.934,8.634l-3.7,2.467v7.4l2.468,2.467v7.401l-2.468,2.467v12.334
				l4.934,6.168v8.634l3.7,2.467l3.701-1.233l1.233,3.7l-1.233,3.7l-3.701-2.467l-1.232,2.467v8.634l6.167,4.934l-1.233,3.7h-2.467
				l-1.234,2.468l9.868,23.435l2.467,6.168l-2.467,2.467v3.7l4.934,4.935l6.168,2.466l4.934,3.7l1.232,4.935h7.401l2.467,1.233
				v3.701l3.7,2.467l7.401,12.334l1.232,11.101l33.303,4.935l-1.233,2.467l49.338,29.603l29.603,4.933l11.102,1.234l2.467-6.167
				l3.7-1.233l17.269,3.7v-1.233l23.435,23.436l3.7,14.801l19.735,12.334l3.7-2.467l6.167-9.867l3.7-1.233l6.168,1.233l6.167,1.233
				l8.634,7.401l3.701,9.867l6.167,11.102l8.634,9.867l1.233,7.4l7.401,12.334l9.867,4.934h8.634l2.468,3.7h3.699v-7.399
				l-2.467-16.036l3.701-9.867l3.7-7.4l7.4-6.168l7.401-1.233h7.399l2.468-3.699l4.933-4.935l-1.233-6.167l3.701-2.467l2.467,4.935
				l3.701-1.233l7.399-3.701l1.234-2.467l1.109-5.55l0.124,0.616c0,0-1.233,7.4-2.468,8.634h13.568l6.167,2.468l7.4-1.234l3.7-2.467
				l2.468,2.467l4.933,6.167l4.935,1.233l4.933-2.467l6.168,1.233l3.701-1.233v-3.699l6.167,4.933l4.933,2.468l2.467-2.468v-3.699
				l-8.633-2.468v-2.467l1.233-1.233l2.467-4.934l1.233-2.467h8.634l2.468-3.7h7.4l6.166-3.7l14.802-2.467l3.701,1.233l8.634,1.233
				l4.933,8.634l4.935,1.233l9.867-9.867l7.4,1.233l8.634,7.4l9.869,6.167v9.867l-2.468,3.701l1.233,3.7l2.468-1.233h3.699
				l1.233,2.466v7.401l3.701,6.167h3.699l1.233,4.935l2.468,1.233l2.467,8.634l6.167,1.233l6.168,7.4l3.699,1.233l7.401-1.233
				l2.466-4.934l-1.232-24.669l-2.467-3.7l-12.335-17.268l-1.233-7.401l-11.101-14.801l-4.935-16.035v-16.034l2.467-3.701l1.234-3.7
				h2.467l1.233-6.167l1.233-2.467h4.934l3.7-3.7v-3.7l3.701-3.701l3.699-2.467v-4.934l3.701-4.934l3.7-4.934h-1.233l6.167-2.467
				l3.7-1.234v-4.933l7.4-7.401l2.468-2.467l6.166-2.468v-3.699l-3.699-3.701l-1.233-2.467l9.867-2.467l2.467-2.467l-1.233-3.7
				l-3.7-1.233h-7.4v-1.233l4.933-2.467l2.468-3.701l-1.233-3.7L670.674,317h-6.167l-3.7-3.7l2.467-3.7l-3.7-4.935l3.7-1.232
				l-4.934-3.701l-6.167-2.467l-3.701-2.467l4.935,1.233h6.167l-2.467-4.934l-1.233-12.334l6.167,13.567l6.168,4.934l1.232,1.233
				l6.168-2.467v-6.167h1.233v-2.467l-9.867-11.102v-1.232l-2.468-4.934l1.234,7.399l-1.234-6.167v-1.232v-1.234
				c0,0-45.637,12.335-48.104,12.335l48.104-12.335l2.468,6.168l1.233-1.234l7.4,4.935l4.933-8.634l1.234-6.168v-6.167l-1.234-4.934
				l-2.466-2.468l1.233-2.466l2.467-1.233l4.934,1.233l14.801-11.102l-2.466-1.233l-11.102,6.167h-4.934l14.802-9.867h4.933v-2.467
				l4.935-2.467v-6.167l-3.701-3.701l-3.699,1.233l-20.969,4.935l24.668-6.168l6.168,4.934h3.7l1.233,3.701h4.935l-1.234-3.701
				l4.934-3.7l1.233-2.466l-2.466-3.701h-3.701l2.468,3.701h-3.701l-4.933-3.701l-3.701-3.7l1.233-4.934l-3.7-1.233l-18.502,7.4
				l11.102-4.934l7.4-2.467l1.233-4.934L710.145,187.488z M349.979,388.54l1.188-28.507l0.046,0.138l-1.183,28.403L349.979,388.54z
				 M407.952,293.564l7.188,6.162l-1.056-0.028L407.952,293.564z M391.917,299.115l-23.437-0.617l-40.703-2.467l41.938,2.467
				L391.917,299.115z M342.579,247.928l-37.004-2.468l66.606,3.701L342.579,247.928z M423.986,357.704l-0.69-4.835
				C423.694,355.24,424.142,357.781,423.986,357.704l30.836-1.233h1.233L423.986,357.704z M595.435,344.136l-7.4,4.935l9.867-7.401
				L595.435,344.136z M607.769,395.941l3.701,3.699l-18.503-16.034L607.769,395.941z M631.204,288.631l-8.634,11.101l3.7-4.934
				L631.204,288.631z M602.836,325.634l3.699-2.467l6.168-3.699L602.836,325.634z M599.135,284.931l1.165-12.813l0.068,0.479
				L599.135,284.931z M510.327,330.567l-6.167,9.868l6.167-11.101V330.567z M303.108,277.529l-28.369-2.466l-34.536-3.701
				L303.108,277.529z M226.635,199.823l-12.334,66.605l2.467-16.035l8.635-44.403L226.635,199.823z M152.629,205.99l-1.233,6.167
				l-4.934,22.202L152.629,205.99z M142.762,161.587l13.567,4.934l6.218,1.036l-0.051,0.196l-7.4-1.232l-13.568-4.934H142.762z
				 M110.691,157.886l4.935,2.467l12.334,1.234h-1.233l-12.335-1.234l-4.934-2.467H110.691z M230.336,337.969l81.407,8.634v6.167
				h-1.029l1.029-6.167l-37.004-3.7L230.336,337.969z M438.974,454.838l-0.186-0.925l3.339-5.565l0.36,0.632L438.974,454.838z
				 M512.794,377.438l34.537-4.933l-14.803,2.467C532.528,374.973,515.261,377.438,512.794,377.438z M670.922,240.033l2.22,0.493
				l8.634,2.468L670.922,240.033z"/>
			<polygon fill="#FFFFFF" stroke="#000000" stroke-width="5" points="669.44,312.066 673.142,307.133 673.142,300.965 
				670.674,299.731 669.44,305.899 			"/>
		</g>
		<rect x="133.511" y="188.723" fill="#FFFFFF" width="343.513" height="192.417"/>
		<rect x="87.256" y="140.618" fill="#FFFFFF" width="78.941" height="40.703"/>
		<rect x="305.268" y="294.798" fill="#FFFFFF" width="312.985" height="106.693"/>
		<rect x="567.683" y="268.896" fill="#FFFFFF" width="73.389" height="37.004"/>
		<rect x="635.521" y="257.795" fill="#FFFFFF" width="30.22" height="20.352"/>
		<rect x="418.437" y="440.345" fill="#FFFFFF" width="37.002" height="16.651"/>
		<rect x="432.62" y="458.847" fill="#FFFFFF" width="18.502" height="9.867"/>
		<rect x="679.309" y="196.123" fill="#FFFFFF" width="26.519" height="17.885"/>
		<rect x="671.907" y="214.604" fill="#FFFFFF" width="34.537" height="11.008"/>
		<rect x="669.44" y="238.117" fill="#FFFFFF" width="12.335" height="7.285"/>
	</g>
	<circle fill="none" stroke="#F15A24" stroke-width="5" stroke-miterlimit="10" cx="57.753" cy="282.897" r="7.5"/>
	<rect x="1" y="191" fill="#FFFFFF" width="149" height="28"/>
	<text transform="matrix(1 0 0 1 6 213.0078)" font-family="'VarelaRound-Regular'" font-size="30">Classadoo</text>
</g>
<g id="Layer_1">
	<path fill="none" stroke="#000000" stroke-width="3" stroke-miterlimit="10" d="M379,233c-153-55-321.247,49.897-321.247,49.897
		s252.39-264.103,583.318,7.5"/>
	<path fill="none" stroke="#000000" stroke-width="3" stroke-miterlimit="10" d="M77,336c-42-16-19.247-53.103-19.247-53.103
		S339,226.34,401,448.67"/>
	<circle fill="#FFFFFF" stroke="#F15A24" stroke-width="3" stroke-miterlimit="10" cx="382" cy="234" r="6"/>
	<circle fill="#FFFFFF" stroke="#F15A24" stroke-width="3" stroke-miterlimit="10" cx="641" cy="290" r="6"/>
	<circle fill="#FFFFFF" stroke="#F15A24" stroke-width="3" stroke-miterlimit="10" cx="401" cy="449" r="6"/>
	<circle fill="#FFFFFF" stroke="#F15A24" stroke-width="3" stroke-miterlimit="10" cx="76" cy="336" r="6"/>
	<g>
		<path d="M57.582,281.519c0,0,0.212-0.027,0.629-0.079c0.419-0.045,1.044-0.113,1.869-0.203c1.637-0.155,4.062-0.347,7.227-0.5
			c6.325-0.277,15.622-0.373,27.405,0.562c5.894,0.436,12.396,1.209,19.436,2.321c3.526,0.529,7.167,1.239,10.951,1.951
			c3.763,0.81,7.671,1.621,11.666,2.644c7.996,2.007,16.454,4.412,25.184,7.521c8.725,3.115,17.755,6.812,26.96,11.161
			c9.19,4.381,18.502,9.494,27.852,15.266c9.377,5.734,18.647,12.35,27.773,19.645c1.138,0.917,2.28,1.836,3.425,2.758l1.721,1.387
			l1.678,1.447c2.226,1.952,4.466,3.917,6.72,5.894c2.214,2.02,4.378,4.12,6.589,6.196c1.091,1.052,2.229,2.066,3.292,3.159
			c1.066,1.089,2.136,2.182,3.208,3.277s2.147,2.194,3.226,3.296l1.619,1.655l1.562,1.715c2.085,2.29,4.182,4.592,6.288,6.904
			c2.089,2.328,4.077,4.761,6.135,7.155c1.021,1.203,2.045,2.409,3.072,3.618c0.982,1.243,1.966,2.489,2.953,3.737
			c1.96,2.507,3.987,4.981,5.946,7.522c1.905,2.581,3.817,5.172,5.736,7.772c1.959,2.575,3.767,5.266,5.601,7.953
			c1.819,2.696,3.718,5.357,5.488,8.111c3.466,5.55,7.13,11.039,10.381,16.803c1.663,2.861,3.364,5.711,5.006,8.603
			c1.58,2.925,3.162,5.856,4.748,8.793l2.389,4.408l2.264,4.479c1.503,2.994,3.009,5.994,4.517,8.998
			c1.517,3.001,2.849,6.089,4.285,9.138c1.396,3.065,2.863,6.108,4.205,9.205c1.317,3.108,2.635,6.219,3.953,9.332
			c1.319,3.115,2.668,6.222,3.85,9.392l3.669,9.472c0.604,1.583,1.241,3.154,1.82,4.745l1.7,4.786
			c9.213,25.486,16.782,51.533,23.006,77.439c0.757,3.244,1.514,6.48,2.268,9.71c0.76,3.229,1.524,6.452,2.159,9.688
			c1.329,6.465,2.651,12.897,3.965,19.291c1.145,6.423,2.282,12.808,3.411,19.146c0.597,3.167,1.047,6.339,1.536,9.496
			c0.483,3.157,0.965,6.303,1.445,9.435c0.474,3.133,0.945,6.254,1.415,9.36c0.404,3.114,0.806,6.214,1.206,9.299
			c0.78,6.171,1.645,12.281,2.25,18.344c1.224,12.125,2.528,23.985,3.347,35.557c0.44,5.784,0.969,11.487,1.319,17.11
			c0.31,5.625,0.615,11.165,0.916,16.612c0.148,2.725,0.295,5.426,0.44,8.104c0.136,2.677,0.195,5.332,0.296,7.961
			c0.168,5.26,0.332,10.421,0.494,15.477c0.508,20.222,0.603,38.761,0.334,55.178c-0.047,4.104-0.093,8.078-0.138,11.914
			c-0.067,3.834-0.225,7.526-0.326,11.076c-0.227,7.098-0.436,13.617-0.623,19.506c-0.09,2.945-0.188,5.729-0.385,8.347
			c-0.22,2.615-0.607,5.06-1.111,7.327c-1.012,4.534-2.479,8.358-4.032,11.436c-3.092,6.155-6.418,9.329-6.418,9.329l-2.996-0.158
			c0,0-3.03-3.51-5.568-9.886c-1.276-3.188-2.402-7.092-3.012-11.643c-0.304-2.276-0.475-4.714-0.465-7.307
			c0.04-2.591,0.203-5.341,0.233-8.249c0.128-5.814,0.27-12.252,0.424-19.261c0.065-3.504,0.185-7.15,0.213-10.934
			c0.025-3.781,0.052-7.7,0.079-11.748c0.03-8.095,0.224-16.713,0.051-25.787c-0.036-4.539-0.073-9.194-0.111-13.959
			c-0.017-2.383-0.034-4.793-0.051-7.23c-0.061-2.435-0.122-4.896-0.184-7.385c-0.125-4.975-0.253-10.054-0.384-15.229
			c-0.068-2.588-0.096-5.203-0.199-7.836c-0.112-2.633-0.226-5.289-0.34-7.968c-0.224-5.359-0.452-10.808-0.684-16.341
			c-0.224-5.534-0.624-11.137-0.935-16.827c-0.557-11.388-1.59-23.037-2.532-34.962c-0.209-2.985-0.547-5.969-0.85-8.974
			c-0.294-3.006-0.59-6.026-0.887-9.062c-0.295-3.037-0.591-6.088-0.889-9.152c-0.363-3.056-0.728-6.125-1.093-9.206
			c-2.839-24.671-6.692-50.05-11.806-75.588c-5.112-25.536-11.528-51.231-19.558-76.414c-8.05-25.168-17.711-49.836-29.315-73.088
			c-1.466-2.898-2.93-5.791-4.39-8.677c-1.522-2.852-3.102-5.663-4.644-8.487c-3.012-5.695-6.428-11.106-9.652-16.596
			c-1.648-2.722-3.423-5.348-5.12-8.015c-1.711-2.658-3.398-5.321-5.232-7.867c-1.796-2.574-3.585-5.139-5.368-7.694
			c-1.842-2.51-3.724-4.976-5.589-7.439c-0.938-1.228-1.873-2.454-2.806-3.677c-0.976-1.188-1.95-2.374-2.921-3.556
			c-1.958-2.353-3.847-4.75-5.835-7.04c-2.017-2.266-4.023-4.52-6.02-6.763l-1.499-1.678l-1.555-1.616
			c-1.035-1.076-2.067-2.149-3.097-3.22c-1.03-1.071-2.057-2.139-3.08-3.204c-1.021-1.069-2.109-2.062-3.155-3.092
			c-2.119-2.033-4.192-4.092-6.313-6.071c-2.158-1.939-4.303-3.867-6.435-5.783l-1.593-1.438l-1.636-1.377
			c-1.088-0.917-2.173-1.831-3.255-2.742c-17.322-14.56-35.356-26.315-52.925-35.411c-17.618-9.01-34.683-15.486-50.188-19.898
			c-3.868-1.142-7.658-2.071-11.313-2.997c-3.675-0.829-7.217-1.654-10.65-2.296c-6.858-1.324-13.203-2.348-18.964-3.021
			c-11.522-1.399-20.661-1.687-26.87-1.674c-3.105,0.021-5.481,0.11-7.076,0.194c-0.79,0.052-1.388,0.092-1.789,0.119
			c-0.401,0.033-0.605,0.05-0.605,0.05L57.582,281.519z"/>
	</g>
	<circle fill="#FFFFFF" stroke="#F15A24" stroke-width="3" stroke-miterlimit="10" cx="408.667" cy="947.333" r="21.417"/>
</g>
</svg>
