<?xml version="1.0" encoding="utf-8"?>
<!-- Generator: Adobe Illustrator 16.0.0, SVG Export Plug-In . SVG Version: 6.00 Build 0)  -->
<!DOCTYPE svg PUBLIC "-//W3C//DTD SVG 1.1//EN" "http://www.w3.org/Graphics/SVG/1.1/DTD/svg11.dtd">
<svg version="1.1" xmlns="http://www.w3.org/2000/svg" xmlns:xlink="http://www.w3.org/1999/xlink" x="0px" y="0px" width="350px"
	 height="350px" viewBox="0 0 350 350" enable-background="new 0 0 350 350" xml:space="preserve">
<g id="person_three">
	
		<path fill="#FFFFFF" stroke="#27AAE1" stroke-width="7" stroke-linecap="round" stroke-linejoin="round" stroke-miterlimit="10" d="
		M445.632,467.176c0.288,0,0.563,0.122,0.814,0.342c0.251-0.22,0.526-0.342,0.814-0.342c1.188,0,2.151,2.054,2.151,4.587
		c0,2.532-0.964,4.586-2.151,4.586c-0.288,0-0.563-0.122-0.814-0.342c-0.251,0.22-0.526,0.342-0.814,0.342
		c-1.188,0-2.151-2.054-2.151-4.586C443.48,469.229,444.443,467.176,445.632,467.176z"/>
	
		<circle fill="#FFFFFF" stroke="#27AAE1" stroke-width="7" stroke-linecap="round" stroke-linejoin="round" stroke-miterlimit="10" cx="446.305" cy="464.462" r="3.523"/>
</g>
<g id="map">
</g>
<g id="map_arcs">
	<g id="computer_3">
		
			<path fill="#FFFFFF" stroke="#27AAE1" stroke-width="3" stroke-linecap="round" stroke-linejoin="round" stroke-miterlimit="10" d="
			M54.85,139.167c1.313,0,2.565,0.555,3.708,1.554c1.145-0.998,2.396-1.554,3.708-1.554c5.41,0,9.794,9.349,9.794,20.881
			c0,11.532-4.385,20.879-9.794,20.879c-1.313,0-2.564-0.553-3.708-1.553c-1.144,1-2.396,1.553-3.708,1.553
			c-5.409,0-9.794-9.348-9.794-20.88C45.056,148.516,49.441,139.167,54.85,139.167z"/>
		
			<circle fill="#FFFFFF" stroke="#27AAE1" stroke-width="3" stroke-linecap="round" stroke-linejoin="round" stroke-miterlimit="10" cx="57.915" cy="126.813" r="16.04"/>
		
			<line fill="none" stroke="#939598" stroke-width="2" stroke-linecap="round" stroke-linejoin="round" stroke-miterlimit="10" x1="31.464" y1="181.389" x2="29.339" y2="163.174"/>
		
			<line fill="none" stroke="#939598" stroke-width="2" stroke-linecap="round" stroke-linejoin="round" stroke-miterlimit="10" x1="85.578" y1="179.547" x2="87.395" y2="162.922"/>
		
			<rect x="31.181" y="159.747" fill="#FFFFFF" stroke="#939598" stroke-width="2" stroke-linecap="round" stroke-linejoin="round" stroke-miterlimit="10" width="54.397" height="21.642"/>
		
			<line fill="none" stroke="#939598" stroke-width="2" stroke-linecap="round" stroke-linejoin="round" stroke-miterlimit="10" x1="31.181" y1="182.922" x2="85.578" y2="182.922"/>
		<g id="Logos">
		</g>
	</g>
	<g id="Logos_1_">
		<rect x="35.629" y="165.906" fill="none" width="45.5" height="10.75"/>
		<text transform="matrix(1 0 0 1 37.4902 172.521)" font-family="'VarelaRound-Regular'" font-size="9">instructor</text>
	</g>
</g>
<g id="student_1">
	<g id="line_to_map">
	</g>
	<g id="house">
	</g>
	<g id="keyboard_1_">
	</g>
	<g id="screen">
		<g id="instructor_1_">
		</g>
	</g>
	<g id="person">
	</g>
</g>
<g id="student_2">
	<g id="line_to_map_copy">
	</g>
	<g id="house_copy">
	</g>
	<g id="keyboard_copy">
	</g>
	<g id="screen_copy">
		<g id="instructor_copy">
		</g>
	</g>
	<g id="person_copy">
	</g>
</g>
<g id="student_3">
	<g id="line_to_map_copy_2">
	</g>
	<g id="house_copy_2">
	</g>
	<g id="keyboard_copy_2">
	</g>
	<g id="screen_copy_2">
		<g id="instructor_copy_2">
		</g>
	</g>
	<g id="person_copy_2">
	</g>
</g>
<g id="student_4">
	<g id="line_to_map_copy_3">
	</g>
	<g id="house_copy_3">
	</g>
	<g id="keyboard_copy_3">
	</g>
	<g id="screen_copy_3">
		<g id="instructor_copy_3">
		</g>
	</g>
	<g id="person_copy_3">
		<rect x="169.039" y="72.359" fill="#FFFFFF" width="10.867" height="3.809"/>
		<g>
			<g>
				<path fill="#FFFFFF" stroke="#010101" d="M277.296,159.42l1.742-1.743l1.395-1.743l0.349-1.394l2.788-2.439l2.091-2.091
					l-0.697-1.045l-1.394-0.349l-0.697-1.394l-1.395-0.349l-0.696-1.045l-0.697-3.137l-1.046-2.091l-1.395-0.349l-1.742,1.394
					l-0.697-0.349h-1.045l-1.046,2.789v2.788l0.349,3.137l-1.046,2.091l-1.394,1.394v1.045l-2.789,0.349l-2.788,1.045l-4.53,1.395
					l-4.531,5.228l1.046,0.697v2.439l-3.137,2.439l-5.577,0.349l1.046,3.137l-2.439,2.092l-2.788,2.788l-3.485,2.439l-2.092,0.697
					h-2.091l-1.395-0.697v-2.091l2.092-2.44v-2.091l-0.697-1.394l-0.697-2.789l-0.697-0.696l-0.696,0.696l-2.092,2.44l-0.696-0.349
					l-0.349-1.046l1.394-2.091l0.349-0.349v-2.091l-0.697-0.697v-1.395l-1.045-0.349l-1.395-0.349l-1.742-1.045h-0.697l-1.046,0.697
					v1.394l-0.349,0.349l-0.349,1.395l-0.348,1.045h-1.395l-0.349,0.697v1.742l-0.697,1.395v2.439l0.697,1.395l0.697,1.045v1.046
					v2.44l-0.697,1.394l-0.26,1.374l-0.089,0.021l-0.697,0.696h-1.742l-2.07-3.794c0.026-0.001,0.044-0.001,0.047,0.001
					l-0.416-6.662l0.697-1.395l0.348-2.439l0.349-1.743l-1.045,1.395l-1.395,1.394v-1.394l0.697-0.697l-0.697-3.485l0.349,1.046
					l0.349,1.394l2.091-3.137l1.046-0.348l0.697-1.046h1.394l1.743-1.046l1.045,0.349l2.788-0.349l0.349-1.045l-0.349-1.394
					l-2.091,0.349h-1.046l-0.348-1.046l-3.137,1.046l-1.046,1.045h-2.439l-1.743-1.394l-2.091,0.349v-1.046l1.046-1.394
					l-0.697-0.349l-3.137,2.789l-3.137,1.394l-2.44-0.349l-1.045-0.349l-2.092,0.697l-1.045,0.697l2.788-3.137l2.439-2.44
					l3.137-1.742h-2.788l-0.697-0.697h-1.046l-0.696,0.349h-1.743l-1.045-0.697l-1.046,0.349l-0.697-1.045l-2.091-0.349
					l-0.697,0.349h-1.046l-3.137-2.091h-7.319l-11.152-0.349l-10.456-0.697l-8.364-1.045l-9.759-1.395l-12.547-2.439l-5.926-1.394
					l-2.461-0.616l0.021-0.082l-11.85-3.485l-5.228-2.092l0.348,2.092l-0.697,1.394l0.35,2.439l-1.046,1.045l-0.697,2.091
					l-1.395-0.349l0.349-1.743l1.046-1.394l-0.697-1.394c0,0-3.137-3.137-3.485-3.137s-1.045,0.697-1.045,0.697v1.743l-0.349,3.485
					v2.789l-0.708,2.091l2.102,0.349l0.349,0.697l1.046,1.045l-0.697,1.743l1.046,0.697h-0.349l-1.046-0.697l0.349-0.697
					l0.349-1.045l-1.046-1.045l-0.349-0.697l-2.091-0.349l-1.046,3.485l-3.485,7.319l-2.788,4.183v1.394v1.046v1.045l-0.349,3.834
					l-1.394,2.44l-1.046,0.696v2.092l0.697,0.696v2.092l-0.697,0.697v3.484l1.395,1.743v2.439l1.045,0.697l1.046-0.349l0.349,1.046
					l-0.349,1.045l-1.046-0.696l-0.348,0.696v2.44l1.742,1.394l-0.349,1.046h-0.697l-0.349,0.697l2.789,6.622l0.696,1.742
					l-0.696,0.697v1.046l1.394,1.394l1.743,0.697l1.394,1.046l0.349,1.394h2.091l0.697,0.349v1.046l1.046,0.697l2.091,3.485
					l0.349,3.137l9.41,1.394l-0.349,0.697l13.941,8.365l8.364,1.394l3.137,0.349l0.697-1.742l1.046-0.349l4.879,1.045v-0.349
					l6.622,6.622l1.046,4.183l5.576,3.485l1.046-0.697l1.742-2.788l1.046-0.349l1.743,0.349l1.742,0.349l2.439,2.091l1.046,2.788
					l1.742,3.138l2.44,2.788l0.348,2.091l2.092,3.485l2.788,1.394h2.439l0.697,1.046h1.046v-2.091l-0.697-4.531l1.046-2.788
					l1.045-2.091l2.092-1.743l2.091-0.349h2.091l0.697-1.045l1.395-1.395l-0.349-1.742l1.046-0.697l0.696,1.395l1.046-0.349
					l2.091-1.046l0.349-0.697l0.313-1.568l0.035,0.175c0,0-0.349,2.091-0.697,2.439h3.834l1.743,0.697l2.091-0.349l1.046-0.697
					l0.697,0.697l1.394,1.742l1.395,0.349l1.394-0.697l1.743,0.349l1.045-0.349v-1.045l1.743,1.394l1.394,0.697l0.697-0.697v-1.045
					l-2.439-0.697v-0.697l0.349-0.349l0.697-1.395l0.349-0.696h2.439l0.697-1.046h2.091l1.742-1.046l4.183-0.696l1.046,0.348
					l2.439,0.349l1.394,2.44l1.395,0.348l2.788-2.788l2.091,0.349l2.44,2.092l2.788,1.742v2.788l-0.697,1.046l0.349,1.045
					l0.697-0.348h1.045l0.349,0.696v2.092l1.046,1.742h1.046l0.348,1.395l0.698,0.349l0.696,2.439l1.743,0.349l1.742,2.091
					l1.046,0.349l2.091-0.349l0.697-1.394l-0.349-6.971l-0.697-1.046l-3.485-4.879l-0.349-2.092l-3.136-4.182l-1.395-4.531v-4.531
					l0.696-1.045l0.35-1.046h0.696l0.349-1.743l0.349-0.696h1.395l1.045-1.046v-1.046l1.046-1.046l1.046-0.696v-1.395l1.046-1.394
					l1.045-1.395h-0.349l1.743-0.697l1.045-0.349v-1.394l2.092-2.092l0.697-0.696l1.742-0.697v-1.046l-1.046-1.046l-0.349-0.696
					l2.789-0.697l0.696-0.697l-0.349-1.046l-1.045-0.348h-2.092v-0.349l1.395-0.697l0.697-1.046l-0.349-1.046l-0.697-1.394h-1.743
					l-1.045-1.046l0.697-1.045l-1.046-1.395l1.046-0.349l-1.395-1.046l-1.742-0.697l-1.046-0.696l1.395,0.349h1.742l-0.697-1.395
					l-0.349-3.485l1.743,3.834l1.742,1.394l0.349,0.349l1.743-0.696v-1.743h0.349v-0.697l-2.789-3.137v-0.348l-0.697-1.395
					l0.35,2.091l-0.35-1.742v-0.349v-0.349c0,0-12.895,3.485-13.592,3.485l13.592-3.485l0.697,1.743l0.349-0.35l2.092,1.395
					l1.394-2.439l0.349-1.743v-1.742l-0.349-1.394l-0.697-0.698l0.349-0.696l0.697-0.349l1.395,0.349l4.182-3.137l-0.696-0.349
					l-3.137,1.742h-1.395l4.183-2.788h1.394v-0.696l1.395-0.697v-1.743l-1.046-1.046l-1.045,0.349l-5.926,1.395l6.971-1.743
					l1.743,1.395h1.045l0.349,1.046h1.395l-0.349-1.046l1.394-1.046l0.349-0.696l-0.696-1.046h-1.046l0.697,1.046h-1.046
					l-1.394-1.046l-1.046-1.046l0.349-1.394l-1.046-0.349l-5.228,2.091l3.137-1.394l2.091-0.697l0.349-1.395L277.296,159.42z
					 M175.525,216.23l0.336-8.056l0.013,0.039l-0.334,8.026L175.525,216.23z M191.906,189.394l2.031,1.741l-0.299-0.008
					L191.906,189.394z M187.375,190.962l-6.622-0.175l-11.501-0.696l11.85,0.696L187.375,190.962z M173.435,176.498l-10.456-0.697
					l18.82,1.046L173.435,176.498z M196.438,207.517l-0.195-1.366C196.354,206.821,196.481,207.539,196.438,207.517l8.713-0.348
					h0.349L196.438,207.517z M244.883,203.683l-2.092,1.395l2.788-2.091L244.883,203.683z M248.367,218.321l1.046,1.046
					l-5.228-4.531L248.367,218.321z M254.989,187.999l-2.439,3.137l1.046-1.394L254.989,187.999z M246.974,198.455l1.046-0.697
					l1.742-1.045L246.974,198.455z M245.928,186.954l0.329-3.621l0.02,0.136L245.928,186.954z M220.834,199.85l-1.742,2.788
					l1.742-3.137V199.85z M162.281,184.862l-8.017-0.696l-9.758-1.046L162.281,184.862z M140.673,162.905l-3.485,18.82l0.696-4.531
					l2.44-12.546L140.673,162.905z M119.761,164.648l-0.349,1.742l-1.394,6.273L119.761,164.648z M116.973,152.101l3.834,1.394
					l1.757,0.293l-0.015,0.055l-2.091-0.348l-3.834-1.394H116.973z M107.911,151.055l1.395,0.697l3.484,0.349h-0.349l-3.485-0.349
					l-1.394-0.697H107.911z M141.718,201.94l23.003,2.439v1.743h-0.29l0.29-1.743l-10.456-1.045L141.718,201.94z M200.672,234.964
					l-0.053-0.262l0.944-1.572l0.102,0.179L200.672,234.964z M221.531,213.094l9.759-1.395l-4.183,0.697
					C227.107,212.396,222.229,213.094,221.531,213.094z M266.213,174.268l0.627,0.139l2.439,0.697L266.213,174.268z"/>
				<polygon fill="#FFFFFF" stroke="#010101" points="265.794,194.621 266.84,193.228 266.84,191.484 266.143,191.136 
					265.794,192.879 				"/>
			</g>
			<rect x="114.358" y="159.769" fill="#FFFFFF" width="97.065" height="54.37"/>
			<rect x="101.289" y="146.176" fill="#FFFFFF" width="22.306" height="11.501"/>
			<rect x="162.892" y="189.742" fill="#FFFFFF" width="88.438" height="30.147"/>
			<rect x="237.041" y="182.423" fill="#FFFFFF" width="20.737" height="10.456"/>
			<rect x="256.21" y="179.286" fill="#FFFFFF" width="8.539" height="5.751"/>
			<rect x="194.869" y="230.868" fill="#FFFFFF" width="10.455" height="4.705"/>
			<rect x="198.877" y="236.097" fill="#FFFFFF" width="5.228" height="2.788"/>
			<rect x="268.582" y="161.859" fill="#FFFFFF" width="7.493" height="5.054"/>
			<rect x="266.491" y="167.082" fill="#FFFFFF" width="9.759" height="3.11"/>
			<rect x="265.794" y="173.726" fill="#FFFFFF" width="3.485" height="2.059"/>
		</g>
		<path fill="none" stroke="#6D6E71" stroke-miterlimit="10" d="M179.906,154.965c-43.367-14.562-84.216,30.072-84.216,30.072
			s62.57-37.381,117.207,1.916"/>
		<ellipse fill="none" stroke="#C94F50" stroke-miterlimit="10" cx="180.868" cy="153.848" rx="3.833" ry="3.921"/>
		<ellipse fill="none" stroke="#C94F50" stroke-miterlimit="10" cx="213.702" cy="186.705" rx="3.833" ry="3.921"/>
		<path fill="none" stroke="#808285" stroke-miterlimit="10" d="M131.284,192.879c-13.75-16.371-35.594-7.842-35.594-7.842
			s80.18-49.377,158.262,1.668"/>
		<ellipse fill="none" stroke="#C94F50" stroke-miterlimit="10" cx="132.536" cy="192.879" rx="3.833" ry="3.921"/>
		<ellipse fill="none" stroke="#C94F50" stroke-miterlimit="10" cx="253.186" cy="186.705" rx="3.833" ry="3.921"/>
		<g>
			<path fill="#6D6E71" d="M167.291,103.753c0,0-0.038,0.236-0.063,0.66c-0.04,0.43-0.075,1.05-0.084,1.826
				c-0.044,1.562,0.019,3.739,0.299,6.268c0.146,1.262,0.328,2.62,0.585,4.029c0.25,1.412,0.552,2.886,0.931,4.382
				c0.177,0.753,0.377,1.511,0.599,2.27c0.208,0.765,0.434,1.533,0.674,2.301c0.466,1.543,0.949,3.107,1.455,4.661
				c1.92,6.275,4.116,12.421,5.947,16.961c0.471,1.13,0.901,2.166,1.284,3.084c0.404,0.91,0.756,1.703,1.046,2.356
				c0.603,1.299,0.974,2.031,0.974,2.031c0.275,0.545,0.058,1.21-0.487,1.487c-0.545,0.276-1.211,0.058-1.487-0.487
				c-0.027-0.056-0.051-0.112-0.068-0.169l-0.02-0.062c0,0-0.238-0.779-0.703-2.125c-0.244-0.669-0.539-1.481-0.878-2.414
				c-0.361-0.924-0.769-1.966-1.212-3.103c-1.831-4.528-4.504-10.476-7.473-16.287c-0.753-1.452-1.528-2.895-2.302-4.311
				c-0.379-0.711-0.768-1.412-1.167-2.097c-0.386-0.691-0.786-1.367-1.199-2.022c-0.801-1.322-1.641-2.573-2.472-3.745
				c-0.825-1.174-1.667-2.259-2.464-3.252c-1.608-1.98-3.119-3.561-4.265-4.63c-0.56-0.54-1.028-0.953-1.362-1.228
				c-0.32-0.281-0.516-0.421-0.516-0.42c-4.129-2.959-5.077-8.705-2.118-12.834c2.958-4.129,8.705-5.077,12.833-2.118
				c2.924,2.096,4.253,5.59,3.728,8.917L167.291,103.753z"/>
		</g>
		<circle fill="none" stroke="#408080" stroke-miterlimit="10" cx="94.272" cy="185.908" r="5"/>
		
			<rect x="118.368" y="35.672" fill="#FFFFFF" stroke="#6D6E71" stroke-width="3" stroke-linecap="round" stroke-miterlimit="10" width="69.879" height="63.328"/>
		
			<polygon id="keyboard_9_" fill="#FFFFFF" stroke="#000000" stroke-linecap="round" stroke-linejoin="round" stroke-miterlimit="10" points="
			138.309,86.225 173.659,86.225 175.313,80.329 139.963,80.329 		"/>
		
			<line fill="none" stroke="#000000" stroke-linecap="round" stroke-linejoin="round" stroke-miterlimit="10" x1="171.764" y1="80.329" x2="169.635" y2="86.225"/>
		
			<line fill="none" stroke="#000000" stroke-linecap="round" stroke-linejoin="round" stroke-miterlimit="10" x1="168.401" y1="80.329" x2="166.272" y2="86.225"/>
		
			<line fill="none" stroke="#000000" stroke-linecap="round" stroke-linejoin="round" stroke-miterlimit="10" x1="165.193" y1="80.329" x2="163.063" y2="86.225"/>
		
			<line fill="none" stroke="#000000" stroke-linecap="round" stroke-linejoin="round" stroke-miterlimit="10" x1="161.873" y1="80.601" x2="159.744" y2="86.079"/>
		
			<line fill="none" stroke="#000000" stroke-linecap="round" stroke-linejoin="round" stroke-miterlimit="10" x1="159.158" y1="80.601" x2="157.589" y2="84.642"/>
		
			<line fill="none" stroke="#000000" stroke-linecap="round" stroke-linejoin="round" stroke-miterlimit="10" x1="155.808" y1="80.601" x2="154.331" y2="84.689"/>
		
			<line fill="none" stroke="#000000" stroke-linecap="round" stroke-linejoin="round" stroke-miterlimit="10" x1="152.414" y1="80.601" x2="150.284" y2="86.079"/>
		
			<line fill="none" stroke="#000000" stroke-linecap="round" stroke-linejoin="round" stroke-miterlimit="10" x1="148.003" y1="80.601" x2="146.025" y2="86.079"/>
		
			<line fill="none" stroke="#000000" stroke-linecap="round" stroke-linejoin="round" stroke-miterlimit="10" x1="144.124" y1="80.601" x2="143.729" y2="82.3"/>
		
			<line fill="none" stroke="#000000" stroke-linecap="round" stroke-linejoin="round" stroke-miterlimit="10" x1="170.699" y1="82.748" x2="139.474" y2="82.621"/>
		
			<line fill="none" stroke="#000000" stroke-linecap="round" stroke-linejoin="round" stroke-miterlimit="10" x1="174.09" y1="84.689" x2="139.149" y2="84.642"/>
		
			<line fill="none" stroke="#000000" stroke-linecap="round" stroke-linejoin="round" stroke-miterlimit="10" x1="142.27" y1="84.689" x2="141.888" y2="85.932"/>
		<g>
			<defs>
				<rect id="SVGID_1_" x="168.615" y="66.396" width="10.381" height="9.272"/>
			</defs>
			<clipPath id="SVGID_2_">
				<use xlink:href="#SVGID_1_"  overflow="visible"/>
			</clipPath>
			<g clip-path="url(#SVGID_2_)">
				<path fill="#FFFFFF" stroke="#27AAE1" stroke-linecap="round" stroke-linejoin="round" stroke-miterlimit="10" d="
					M173.711,72.926c0.223,0,0.435,0.094,0.628,0.263c0.194-0.169,0.406-0.263,0.628-0.263c0.916,0,1.658,1.583,1.658,3.536
					c0,1.953-0.742,3.536-1.658,3.536c-0.223,0-0.435-0.095-0.628-0.264c-0.193,0.168-0.405,0.264-0.628,0.264
					c-0.915,0-1.658-1.583-1.658-3.536C172.053,74.509,172.796,72.926,173.711,72.926z"/>
				
					<circle fill="#FFFFFF" stroke="#27AAE1" stroke-linecap="round" stroke-linejoin="round" stroke-miterlimit="10" cx="174.23" cy="70.834" r="2.716"/>
			</g>
		</g>
		
			<rect x="135.422" y="55.066" fill="#333333" stroke="#000000" stroke-linecap="round" stroke-linejoin="round" stroke-miterlimit="10" width="19.043" height="20.83"/>
		
			<rect x="135.456" y="43.448" fill="#333333" stroke="#000000" stroke-linecap="round" stroke-linejoin="round" stroke-miterlimit="10" width="19.044" height="12.403"/>
		<rect x="168.879" y="64.978" width="9.854" height="1.478"/>
		<g>
			<rect x="168.88" y="65.184" fill="none" width="10.541" height="1.432"/>
			<text transform="matrix(1 0 0 1 171.6416 66.063)" fill="#BCBEC0" font-family="'MyriadPro-Regular'" font-size="1.2375">Instructor</text>
		</g>
		
			<rect x="135.422" y="43.448" fill="none" stroke="#000000" stroke-linecap="round" stroke-linejoin="round" stroke-miterlimit="10" width="43.999" height="32.448"/>
		
			<rect x="169.039" y="66.616" fill="none" stroke="#000000" stroke-linecap="round" stroke-linejoin="round" stroke-miterlimit="10" width="10.382" height="9.28"/>
		<rect x="137.141" y="59.748" fill="none" width="15.675" height="14.54"/>
		<text transform="matrix(1 0 0 1 137.1411 60.8315)"><tspan x="0" y="0" fill="#86C440" font-family="'Monaco'" font-size="1.375">&lt;</tspan><tspan x="0.825" y="0" fill="#86C440" font-family="'Monaco'" font-size="1.1">h2 id=”title”&gt;</tspan><tspan x="0" y="1.32" fill="#86C440" font-family="'Monaco'" font-size="1.1">    Paul’s Website</tspan><tspan x="0" y="2.64" fill="#86C440" font-family="'Monaco'" font-size="1.1">&lt;/h2&gt;</tspan><tspan x="0" y="5.28" fill="#86C440" font-family="'Monaco'" font-size="1.1">&lt;style&gt;</tspan><tspan x="0" y="6.6" fill="#86C440" font-family="'Monaco'" font-size="1.1">  #title {</tspan><tspan x="0" y="7.92" fill="#86C440" font-family="'Monaco'" font-size="1.1">    color: red;</tspan><tspan x="0" y="9.24" fill="#86C440" font-family="'Monaco'" font-size="1.1">    text-align: center;</tspan><tspan x="0" y="10.89" fill="#86C440" font-family="'Monaco'" font-size="1.375">  }</tspan><tspan x="0" y="12.209" fill="#86C440" font-family="'Monaco'" font-size="1.1">&lt;/style&gt;</tspan></text>
		<rect x="154.747" y="47.072" fill="none" width="23.986" height="5.155"/>
		<text transform="matrix(1 0 0 1 161.7676 48.2925)" fill="#DA1C5C" font-family="'MyriadPro-Regular'" font-size="1.7187">Pauls Website</text>
		<rect x="135.979" y="44.486" fill="none" width="18.486" height="1.685"/>
		<text transform="matrix(1 0 0 1 140.7822 45.4634)" fill="#BCBEC0" font-family="'MyriadPro-Regular'" font-size="1.375">Instructor Code</text>
		<rect x="137.078" y="46.541" fill="none" width="15.674" height="8.837"/>
		<text transform="matrix(1 0 0 1 137.0791 47.4087)"><tspan x="0" y="0" fill="#86C440" font-family="'Monaco'" font-size="1.1">&lt;h2 id=”title”&gt;</tspan><tspan x="0" y="1.32" fill="#86C440" font-family="'Monaco'" font-size="1.1">    Your Website title</tspan><tspan x="0" y="2.64" fill="#86C440" font-family="'Monaco'" font-size="1.1">&lt;/h2&gt;</tspan><tspan x="0" y="5.61" fill="#86C440" font-family="'Monaco'" font-size="1.1">&lt;style&gt;</tspan><tspan x="0" y="6.93" fill="#86C440" font-family="'Monaco'" font-size="1.1"> change the colo</tspan><tspan x="10.562" y="6.93" fill="#86C440" font-family="'Monaco'" font-size="1.1">r</tspan><tspan x="11.135" y="6.93" fill="#86C440" font-family="'Monaco'" font-size="1.1"> here</tspan></text>
		<rect x="135.979" y="56.401" fill="none" width="18.486" height="1.685"/>
		<text transform="matrix(1 0 0 1 141.2827 57.3774)" fill="#BCBEC0" font-family="'MyriadPro-Regular'" font-size="1.375">Student Code</text>
		<rect x="154.466" y="44.486" fill="none" width="24.955" height="1.685"/>
		<text transform="matrix(1 0 0 1 164.667 45.4634)" fill="#939598" font-family="'MyriadPro-Regular'" font-size="1.375">Preview</text>
		<polygon fill="#6D6E71" points="117.812,100 154.034,110.415 190.257,100 		"/>
		<g>
			<defs>
				<rect id="SVGID_3_" x="115.503" y="55.545" width="46.295" height="38.869"/>
			</defs>
			<clipPath id="SVGID_4_">
				<use xlink:href="#SVGID_3_"  overflow="visible"/>
			</clipPath>
			
				<path clip-path="url(#SVGID_4_)" fill="#FFFFFF" stroke="#C94F50" stroke-linecap="round" stroke-linejoin="round" stroke-miterlimit="10" d="
				M136.606,76.073c0.856,0,1.672,0.362,2.418,1.012c0.746-0.65,1.562-1.012,2.416-1.012c3.525,0,6.384,6.093,6.384,13.608
				c0,7.517-2.858,13.609-6.384,13.609c-0.854,0-1.67-0.361-2.416-1.012c-0.746,0.651-1.562,1.012-2.418,1.012
				c-3.523,0-6.382-6.092-6.382-13.609C130.225,82.167,133.083,76.073,136.606,76.073z"/>
		</g>
		
			<circle fill="#FFFFFF" stroke="#C94F50" stroke-linecap="round" stroke-linejoin="round" stroke-miterlimit="10" cx="138.604" cy="68.02" r="10.454"/>
		
			<line fill="none" stroke="#C94F50" stroke-linecap="round" stroke-miterlimit="10" x1="130.72" y1="93.759" x2="147.113" y2="93.759"/>
		<g>
			<path fill="#6D6E71" d="M274.947,99.023c0,0-0.324,0.294-0.89,0.871c-0.579,0.569-1.407,1.417-2.428,2.515
				c-2.065,2.182-4.898,5.371-8.109,9.31c-1.6,1.974-3.312,4.124-5.062,6.436c-1.756,2.307-3.573,4.761-5.391,7.337
				c-0.92,1.281-1.837,2.595-2.748,3.936c-0.925,1.332-1.843,2.691-2.753,4.07c-1.832,2.751-3.693,5.546-5.555,8.34
				c-1.88,2.784-3.666,5.623-5.473,8.39c-1.796,2.772-3.569,5.498-5.229,8.169c-1.668,2.667-3.31,5.226-4.813,7.686
				s-2.925,4.785-4.237,6.931c-1.285,2.163-2.464,4.145-3.509,5.901c-1.025,1.769-1.919,3.311-2.654,4.581
				c-1.437,2.561-2.257,4.024-2.257,4.024c-0.297,0.53-0.968,0.719-1.498,0.422c-0.53-0.298-0.719-0.968-0.422-1.498
				c0.011-0.02,0.023-0.041,0.035-0.059c0,0,0.909-1.41,2.501-3.878c0.778-1.244,1.723-2.756,2.807-4.489
				c1.063-1.745,2.264-3.714,3.572-5.863c1.283-2.164,2.674-4.508,4.144-6.987c1.47-2.48,2.964-5.129,4.54-7.851
				c1.583-2.717,3.162-5.559,4.771-8.444c1.601-2.891,3.273-5.798,4.854-8.762c1.599-2.953,3.197-5.905,4.771-8.812
				c0.794-1.45,1.564-2.897,2.309-4.337c0.759-1.433,1.491-2.857,2.192-4.271c1.427-2.812,2.745-5.566,3.963-8.198
				c1.224-2.628,2.323-5.147,3.318-7.484c1.979-4.681,3.472-8.677,4.434-11.523c0.493-1.417,0.854-2.544,1.087-3.322
				c0.245-0.77,0.354-1.194,0.354-1.194c1.114-4.361,5.553-6.994,9.914-5.88c4.361,1.114,6.994,5.553,5.88,9.915
				C276.955,96.615,276.094,97.985,274.947,99.023z"/>
		</g>
		
			<rect x="238.679" y="23.461" fill="#FFFFFF" stroke="#6D6E71" stroke-width="3" stroke-linecap="round" stroke-miterlimit="10" width="69.88" height="63.328"/>
		
			<polygon id="keyboard_8_" fill="#FFFFFF" stroke="#000000" stroke-linecap="round" stroke-linejoin="round" stroke-miterlimit="10" points="
			258.62,74.014 293.971,74.014 295.625,68.118 260.274,68.118 		"/>
		
			<line fill="none" stroke="#000000" stroke-linecap="round" stroke-linejoin="round" stroke-miterlimit="10" x1="292.075" y1="68.118" x2="289.946" y2="74.014"/>
		
			<line fill="none" stroke="#000000" stroke-linecap="round" stroke-linejoin="round" stroke-miterlimit="10" x1="288.713" y1="68.118" x2="286.584" y2="74.014"/>
		
			<line fill="none" stroke="#000000" stroke-linecap="round" stroke-linejoin="round" stroke-miterlimit="10" x1="285.505" y1="68.118" x2="283.375" y2="74.014"/>
		
			<line fill="none" stroke="#000000" stroke-linecap="round" stroke-linejoin="round" stroke-miterlimit="10" x1="282.185" y1="68.39" x2="280.056" y2="73.868"/>
		
			<line fill="none" stroke="#000000" stroke-linecap="round" stroke-linejoin="round" stroke-miterlimit="10" x1="279.47" y1="68.39" x2="277.9" y2="72.431"/>
		
			<line fill="none" stroke="#000000" stroke-linecap="round" stroke-linejoin="round" stroke-miterlimit="10" x1="276.119" y1="68.39" x2="274.643" y2="72.478"/>
		
			<line fill="none" stroke="#000000" stroke-linecap="round" stroke-linejoin="round" stroke-miterlimit="10" x1="272.726" y1="68.39" x2="270.596" y2="73.868"/>
		
			<line fill="none" stroke="#000000" stroke-linecap="round" stroke-linejoin="round" stroke-miterlimit="10" x1="268.314" y1="68.39" x2="266.337" y2="73.868"/>
		
			<line fill="none" stroke="#000000" stroke-linecap="round" stroke-linejoin="round" stroke-miterlimit="10" x1="264.436" y1="68.39" x2="264.04" y2="70.089"/>
		
			<line fill="none" stroke="#000000" stroke-linecap="round" stroke-linejoin="round" stroke-miterlimit="10" x1="291.011" y1="70.537" x2="259.785" y2="70.41"/>
		
			<line fill="none" stroke="#000000" stroke-linecap="round" stroke-linejoin="round" stroke-miterlimit="10" x1="294.401" y1="72.478" x2="259.461" y2="72.431"/>
		
			<line fill="none" stroke="#000000" stroke-linecap="round" stroke-linejoin="round" stroke-miterlimit="10" x1="262.581" y1="72.478" x2="262.199" y2="73.721"/>
		<g>
			<defs>
				<rect id="SVGID_5_" x="288.927" y="54.185" width="10.381" height="9.272"/>
			</defs>
			<clipPath id="SVGID_6_">
				<use xlink:href="#SVGID_5_"  overflow="visible"/>
			</clipPath>
			<g clip-path="url(#SVGID_6_)">
				<path fill="#FFFFFF" stroke="#27AAE1" stroke-linecap="round" stroke-linejoin="round" stroke-miterlimit="10" d="
					M294.022,60.715c0.223,0,0.435,0.094,0.628,0.263c0.194-0.169,0.406-0.263,0.628-0.263c0.916,0,1.658,1.583,1.658,3.536
					c0,1.953-0.742,3.536-1.658,3.536c-0.223,0-0.435-0.095-0.628-0.264c-0.193,0.168-0.405,0.264-0.628,0.264
					c-0.915,0-1.658-1.583-1.658-3.536C292.364,62.298,293.107,60.715,294.022,60.715z"/>
				
					<circle fill="#FFFFFF" stroke="#27AAE1" stroke-linecap="round" stroke-linejoin="round" stroke-miterlimit="10" cx="294.542" cy="58.623" r="2.716"/>
			</g>
		</g>
		
			<rect x="255.733" y="42.855" fill="#333333" stroke="#000000" stroke-linecap="round" stroke-linejoin="round" stroke-miterlimit="10" width="19.043" height="20.83"/>
		
			<rect x="255.768" y="31.237" fill="#333333" stroke="#000000" stroke-linecap="round" stroke-linejoin="round" stroke-miterlimit="10" width="19.043" height="12.403"/>
		<rect x="289.19" y="52.767" width="9.854" height="1.478"/>
		<g>
			<rect x="289.191" y="52.973" fill="none" width="10.541" height="1.432"/>
			<text transform="matrix(1 0 0 1 291.9531 53.8516)" fill="#BCBEC0" font-family="'MyriadPro-Regular'" font-size="1.2375">Instructor</text>
		</g>
		
			<rect x="255.733" y="31.237" fill="none" stroke="#000000" stroke-linecap="round" stroke-linejoin="round" stroke-miterlimit="10" width="43.999" height="32.448"/>
		
			<rect x="289.351" y="54.405" fill="none" stroke="#000000" stroke-linecap="round" stroke-linejoin="round" stroke-miterlimit="10" width="10.382" height="9.28"/>
		<rect x="257.452" y="47.537" fill="none" width="15.675" height="14.54"/>
		<text transform="matrix(1 0 0 1 257.4521 48.6201)"><tspan x="0" y="0" fill="#86C440" font-family="'Monaco'" font-size="1.375">v&lt;</tspan><tspan x="1.65" y="0" fill="#86C440" font-family="'Monaco'" font-size="1.1">h2 id=”title”&gt;</tspan><tspan x="0" y="1.32" fill="#86C440" font-family="'Monaco'" font-size="1.1">    David’s Website</tspan><tspan x="0" y="2.64" fill="#86C440" font-family="'Monaco'" font-size="1.1">&lt;/h2&gt;</tspan><tspan x="0" y="5.28" fill="#86C440" font-family="'Monaco'" font-size="1.1">&lt;style&gt;</tspan><tspan x="0" y="6.6" fill="#86C440" font-family="'Monaco'" font-size="1.1">  #title {</tspan><tspan x="0" y="7.92" fill="#86C440" font-family="'Monaco'" font-size="1.1">    color: red;</tspan><tspan x="0" y="9.24" fill="#86C440" font-family="'Monaco'" font-size="1.1">    text-align: center;</tspan><tspan x="0" y="10.89" fill="#86C440" font-family="'Monaco'" font-size="1.375">  }</tspan><tspan x="0" y="12.209" fill="#86C440" font-family="'Monaco'" font-size="1.1">&lt;/style&gt;</tspan></text>
		<rect x="275.059" y="34.861" fill="none" width="23.986" height="5.155"/>
		<text transform="matrix(1 0 0 1 281.3633 36.0811)" fill="#DA1C5C" font-family="'MyriadPro-Regular'" font-size="1.7187">David’s Website</text>
		<rect x="256.291" y="32.275" fill="none" width="18.486" height="1.685"/>
		<text transform="matrix(1 0 0 1 261.0938 33.251)" fill="#BCBEC0" font-family="'MyriadPro-Regular'" font-size="1.375">Instructor Code</text>
		<rect x="257.39" y="34.33" fill="none" width="15.675" height="8.837"/>
		<text transform="matrix(1 0 0 1 257.3896 35.1968)"><tspan x="0" y="0" fill="#86C440" font-family="'Monaco'" font-size="1.1">&lt;h2 id=”title”&gt;</tspan><tspan x="0" y="1.32" fill="#86C440" font-family="'Monaco'" font-size="1.1">    Your Website title</tspan><tspan x="0" y="2.64" fill="#86C440" font-family="'Monaco'" font-size="1.1">&lt;/h2&gt;</tspan><tspan x="0" y="5.61" fill="#86C440" font-family="'Monaco'" font-size="1.1">&lt;style&gt;</tspan><tspan x="0" y="6.93" fill="#86C440" font-family="'Monaco'" font-size="1.1"> change the colo</tspan><tspan x="10.562" y="6.93" fill="#86C440" font-family="'Monaco'" font-size="1.1">r</tspan><tspan x="11.135" y="6.93" fill="#86C440" font-family="'Monaco'" font-size="1.1"> here</tspan></text>
		<rect x="256.291" y="44.19" fill="none" width="18.486" height="1.685"/>
		<text transform="matrix(1 0 0 1 261.5938 45.166)" fill="#BCBEC0" font-family="'MyriadPro-Regular'" font-size="1.375">Student Code</text>
		<rect x="274.777" y="32.275" fill="none" width="24.955" height="1.685"/>
		<text transform="matrix(1 0 0 1 284.9775 33.251)" fill="#939598" font-family="'MyriadPro-Regular'" font-size="1.375">Preview</text>
		<polygon fill="#6D6E71" points="238.124,87.789 274.346,98.204 310.568,87.789 		"/>
		<g>
			<defs>
				<rect id="SVGID_7_" x="263.814" y="43.334" width="46.295" height="38.869"/>
			</defs>
			<clipPath id="SVGID_8_">
				<use xlink:href="#SVGID_7_"  overflow="visible"/>
			</clipPath>
			
				<path clip-path="url(#SVGID_8_)" fill="#FFFFFF" stroke="#C94F50" stroke-linecap="round" stroke-linejoin="round" stroke-miterlimit="10" d="
				M284.918,63.862c0.856,0,1.672,0.362,2.418,1.012c0.746-0.65,1.562-1.012,2.416-1.012c3.525,0,6.384,6.093,6.384,13.608
				c0,7.517-2.858,13.609-6.384,13.609c-0.854,0-1.67-0.361-2.416-1.012c-0.746,0.651-1.562,1.012-2.418,1.012
				c-3.523,0-6.382-6.092-6.382-13.609C278.536,69.956,281.395,63.862,284.918,63.862z"/>
		</g>
		
			<circle fill="#FFFFFF" stroke="#C94F50" stroke-linecap="round" stroke-linejoin="round" stroke-miterlimit="10" cx="286.916" cy="55.809" r="10.454"/>
		
			<line fill="none" stroke="#C94F50" stroke-linecap="round" stroke-miterlimit="10" x1="279.031" y1="81.548" x2="295.425" y2="81.548"/>
		<g>
			<path fill="#6D6E71" d="M99.723,222.434c0,0,0.2-0.06,0.535-0.198c0.348-0.13,0.839-0.336,1.432-0.62
				c1.209-0.552,2.826-1.423,4.589-2.599c0.876-0.592,1.805-1.247,2.731-1.983c0.932-0.731,1.882-1.526,2.806-2.393
				c0.473-0.425,0.937-0.87,1.389-1.333c0.464-0.454,0.922-0.923,1.371-1.404c0.912-0.953,1.829-1.928,2.727-2.917
				c3.622-3.934,6.989-8.055,9.362-11.259c2.38-3.199,3.734-5.503,3.735-5.503c0.31-0.526,0.987-0.702,1.514-0.393
				c0.526,0.31,0.702,0.987,0.393,1.515c-0.039,0.066-0.088,0.131-0.138,0.187c0,0-1.806,1.971-4.167,5.183
				c-2.368,3.208-5.321,7.636-8.021,12.251c-0.683,1.147-1.346,2.311-1.99,3.461c-0.329,0.57-0.643,1.146-0.941,1.723
				c-0.31,0.568-0.6,1.142-0.867,1.718c-0.558,1.138-1.04,2.279-1.465,3.385c-0.433,1.101-0.787,2.182-1.096,3.192
				c-0.607,2.03-0.966,3.831-1.139,5.149c-0.098,0.65-0.151,1.18-0.173,1.551c-0.035,0.361-0.033,0.569-0.033,0.569
				c0.065,5.41-4.268,9.849-9.677,9.913c-5.41,0.065-9.848-4.268-9.913-9.678C92.631,227.461,95.617,223.64,99.723,222.434z"/>
		</g>
		
			<rect x="65.622" y="233.221" fill="#FFFFFF" stroke="#6D6E71" stroke-width="3" stroke-linecap="round" stroke-miterlimit="10" width="69.88" height="63.328"/>
		
			<polygon id="keyboard_7_" fill="#FFFFFF" stroke="#000000" stroke-linecap="round" stroke-linejoin="round" stroke-miterlimit="10" points="
			85.563,283.773 120.914,283.773 122.568,277.878 87.218,277.878 		"/>
		
			<line fill="none" stroke="#000000" stroke-linecap="round" stroke-linejoin="round" stroke-miterlimit="10" x1="119.019" y1="277.878" x2="116.89" y2="283.773"/>
		
			<line fill="none" stroke="#000000" stroke-linecap="round" stroke-linejoin="round" stroke-miterlimit="10" x1="115.656" y1="277.878" x2="113.527" y2="283.773"/>
		
			<line fill="none" stroke="#000000" stroke-linecap="round" stroke-linejoin="round" stroke-miterlimit="10" x1="112.448" y1="277.878" x2="110.318" y2="283.773"/>
		
			<line fill="none" stroke="#000000" stroke-linecap="round" stroke-linejoin="round" stroke-miterlimit="10" x1="109.128" y1="278.15" x2="106.999" y2="283.627"/>
		
			<line fill="none" stroke="#000000" stroke-linecap="round" stroke-linejoin="round" stroke-miterlimit="10" x1="106.413" y1="278.15" x2="104.844" y2="282.19"/>
		
			<line fill="none" stroke="#000000" stroke-linecap="round" stroke-linejoin="round" stroke-miterlimit="10" x1="103.062" y1="278.15" x2="101.586" y2="282.238"/>
		
			<line fill="none" stroke="#000000" stroke-linecap="round" stroke-linejoin="round" stroke-miterlimit="10" x1="99.669" y1="278.15" x2="97.539" y2="283.627"/>
		
			<line fill="none" stroke="#000000" stroke-linecap="round" stroke-linejoin="round" stroke-miterlimit="10" x1="95.258" y1="278.15" x2="93.28" y2="283.627"/>
		
			<line fill="none" stroke="#000000" stroke-linecap="round" stroke-linejoin="round" stroke-miterlimit="10" x1="91.379" y1="278.15" x2="90.983" y2="279.85"/>
		
			<line fill="none" stroke="#000000" stroke-linecap="round" stroke-linejoin="round" stroke-miterlimit="10" x1="117.954" y1="280.297" x2="86.729" y2="280.17"/>
		
			<line fill="none" stroke="#000000" stroke-linecap="round" stroke-linejoin="round" stroke-miterlimit="10" x1="121.345" y1="282.238" x2="86.404" y2="282.19"/>
		
			<line fill="none" stroke="#000000" stroke-linecap="round" stroke-linejoin="round" stroke-miterlimit="10" x1="89.524" y1="282.238" x2="89.143" y2="283.48"/>
		<g>
			<defs>
				<rect id="SVGID_9_" x="115.87" y="263.944" width="10.381" height="9.272"/>
			</defs>
			<clipPath id="SVGID_10_">
				<use xlink:href="#SVGID_9_"  overflow="visible"/>
			</clipPath>
			<g clip-path="url(#SVGID_10_)">
				<path fill="#FFFFFF" stroke="#27AAE1" stroke-linecap="round" stroke-linejoin="round" stroke-miterlimit="10" d="
					M120.966,270.475c0.223,0,0.435,0.095,0.628,0.264c0.194-0.169,0.406-0.264,0.628-0.264c0.916,0,1.658,1.584,1.658,3.537
					c0,1.952-0.742,3.535-1.658,3.535c-0.223,0-0.435-0.096-0.628-0.264c-0.193,0.168-0.405,0.264-0.628,0.264
					c-0.915,0-1.658-1.583-1.658-3.535C119.308,272.059,120.051,270.475,120.966,270.475z"/>
				
					<circle fill="#FFFFFF" stroke="#27AAE1" stroke-linecap="round" stroke-linejoin="round" stroke-miterlimit="10" cx="121.485" cy="268.383" r="2.716"/>
			</g>
		</g>
		
			<rect x="82.677" y="252.615" fill="#333333" stroke="#000000" stroke-linecap="round" stroke-linejoin="round" stroke-miterlimit="10" width="19.043" height="20.83"/>
		
			<rect x="82.711" y="240.997" fill="#333333" stroke="#000000" stroke-linecap="round" stroke-linejoin="round" stroke-miterlimit="10" width="19.043" height="12.403"/>
		<rect x="116.134" y="262.527" width="9.854" height="1.478"/>
		<g>
			<rect x="116.134" y="262.732" fill="none" width="10.541" height="1.432"/>
			<text transform="matrix(1 0 0 1 118.896 263.6113)" fill="#BCBEC0" font-family="'MyriadPro-Regular'" font-size="1.2375">Instructor</text>
		</g>
		
			<rect x="82.677" y="240.997" fill="none" stroke="#000000" stroke-linecap="round" stroke-linejoin="round" stroke-miterlimit="10" width="43.999" height="32.448"/>
		
			<rect x="116.294" y="264.165" fill="none" stroke="#000000" stroke-linecap="round" stroke-linejoin="round" stroke-miterlimit="10" width="10.382" height="9.28"/>
		<rect x="84.395" y="257.297" fill="none" width="15.675" height="14.539"/>
		<text transform="matrix(1 0 0 1 84.3955 258.3799)"><tspan x="0" y="0" fill="#86C440" font-family="'Monaco'" font-size="1.375">v&lt;</tspan><tspan x="1.65" y="0" fill="#86C440" font-family="'Monaco'" font-size="1.1">h2 id=”title”&gt;</tspan><tspan x="0" y="1.32" fill="#86C440" font-family="'Monaco'" font-size="1.1">    Janet’s Website</tspan><tspan x="0" y="2.641" fill="#86C440" font-family="'Monaco'" font-size="1.1">&lt;/h2&gt;</tspan><tspan x="0" y="5.28" fill="#86C440" font-family="'Monaco'" font-size="1.1">&lt;style&gt;</tspan><tspan x="0" y="6.6" fill="#86C440" font-family="'Monaco'" font-size="1.1">  #title {</tspan><tspan x="0" y="7.92" fill="#86C440" font-family="'Monaco'" font-size="1.1">    color: red;</tspan><tspan x="0" y="9.24" fill="#86C440" font-family="'Monaco'" font-size="1.1">    text-align: center;</tspan><tspan x="0" y="10.89" fill="#86C440" font-family="'Monaco'" font-size="1.375">  }</tspan><tspan x="0" y="12.21" fill="#86C440" font-family="'Monaco'" font-size="1.1">&lt;/style&gt;</tspan></text>
		<rect x="102.001" y="244.621" fill="none" width="23.986" height="5.154"/>
		<text transform="matrix(1 0 0 1 108.4683 245.8408)" fill="#DA1C5C" font-family="'MyriadPro-Regular'" font-size="1.7187">Janet’s Website</text>
		<rect x="83.234" y="242.035" fill="none" width="18.486" height="1.684"/>
		<text transform="matrix(1 0 0 1 88.0366 243.0117)" fill="#BCBEC0" font-family="'MyriadPro-Regular'" font-size="1.375">Instructor Code</text>
		<rect x="84.333" y="244.09" fill="none" width="15.675" height="8.838"/>
		<text transform="matrix(1 0 0 1 84.3335 244.957)"><tspan x="0" y="0" fill="#86C440" font-family="'Monaco'" font-size="1.1">&lt;h2 id=”title”&gt;</tspan><tspan x="0" y="1.32" fill="#86C440" font-family="'Monaco'" font-size="1.1">    Your Website title</tspan><tspan x="0" y="2.641" fill="#86C440" font-family="'Monaco'" font-size="1.1">&lt;/h2&gt;</tspan><tspan x="0" y="5.61" fill="#86C440" font-family="'Monaco'" font-size="1.1">&lt;style&gt;</tspan><tspan x="0" y="6.93" fill="#86C440" font-family="'Monaco'" font-size="1.1"> change the colo</tspan><tspan x="10.562" y="6.93" fill="#86C440" font-family="'Monaco'" font-size="1.1">r</tspan><tspan x="11.135" y="6.93" fill="#86C440" font-family="'Monaco'" font-size="1.1"> here</tspan></text>
		<rect x="83.234" y="253.949" fill="none" width="18.486" height="1.686"/>
		<text transform="matrix(1 0 0 1 88.5371 254.9258)" fill="#BCBEC0" font-family="'MyriadPro-Regular'" font-size="1.375">Student Code</text>
		<rect x="101.72" y="242.035" fill="none" width="24.955" height="1.684"/>
		<text transform="matrix(1 0 0 1 111.9214 243.0117)" fill="#939598" font-family="'MyriadPro-Regular'" font-size="1.375">Preview</text>
		<polygon fill="#6D6E71" points="64.34,232.221 100.562,221.807 136.784,232.221 		"/>
		<g>
			<defs>
				<rect id="SVGID_11_" x="78.758" y="253.094" width="46.295" height="38.869"/>
			</defs>
			<clipPath id="SVGID_12_">
				<use xlink:href="#SVGID_11_"  overflow="visible"/>
			</clipPath>
			
				<path clip-path="url(#SVGID_12_)" fill="#FFFFFF" stroke="#C94F50" stroke-linecap="round" stroke-linejoin="round" stroke-miterlimit="10" d="
				M99.861,273.622c0.856,0,1.672,0.362,2.418,1.012c0.746-0.649,1.562-1.012,2.416-1.012c3.525,0,6.384,6.093,6.384,13.608
				c0,7.518-2.858,13.609-6.384,13.609c-0.854,0-1.67-0.361-2.416-1.012c-0.746,0.65-1.562,1.012-2.418,1.012
				c-3.523,0-6.382-6.092-6.382-13.609C93.479,279.715,96.338,273.622,99.861,273.622z"/>
		</g>
		
			<circle fill="#FFFFFF" stroke="#C94F50" stroke-linecap="round" stroke-linejoin="round" stroke-miterlimit="10" cx="101.859" cy="265.568" r="10.454"/>
		
			<line fill="none" stroke="#C94F50" stroke-linecap="round" stroke-miterlimit="10" x1="93.975" y1="291.309" x2="110.368" y2="291.309"/>
		<g>
			<path fill="#6D6E71" d="M271.741,261.555c0,0,0.021-0.324,0.013-0.915c0.007-0.596-0.006-1.462-0.06-2.551
				c-0.079-2.188-0.323-5.27-0.824-8.894c-0.257-1.811-0.558-3.764-0.944-5.806c-0.378-2.044-0.815-4.188-1.338-6.38
				c-0.248-1.101-0.521-2.213-0.816-3.332c-0.281-1.123-0.581-2.256-0.897-3.392c-0.617-2.278-1.254-4.589-1.914-6.893
				c-0.644-2.308-1.333-4.601-1.995-6.863c-0.683-2.256-1.35-4.477-2.04-6.61c-0.687-2.136-1.318-4.211-1.975-6.158
				c-0.657-1.948-1.279-3.789-1.853-5.489c-0.603-1.689-1.155-3.238-1.645-4.611c-0.512-1.365-0.958-2.556-1.325-3.535
				c-0.757-1.953-1.216-3.06-1.216-3.06c-0.233-0.562,0.033-1.207,0.596-1.439c0.562-0.233,1.207,0.033,1.44,0.595
				c0.016,0.038,0.03,0.083,0.042,0.122c0,0,0.327,1.152,0.946,3.152c0.321,0.996,0.71,2.206,1.157,3.594
				c0.469,1.381,0.997,2.938,1.574,4.636c0.605,1.688,1.262,3.519,1.956,5.453s1.488,3.953,2.276,6.054
				c0.783,2.102,1.641,4.257,2.506,6.448c0.887,2.185,1.77,4.409,2.698,6.619c0.913,2.215,1.849,4.421,2.779,6.59
				c0.458,1.088,0.926,2.161,1.402,3.217c0.464,1.061,0.94,2.102,1.43,3.118c0.952,2.043,1.939,3.994,2.913,5.832
				c0.965,1.841,1.941,3.559,2.864,5.137c1.858,3.152,3.58,5.718,4.877,7.482c0.635,0.888,1.162,1.574,1.537,2.037
				c0.361,0.468,0.578,0.709,0.578,0.709c3.133,3.475,2.855,8.831-0.619,11.963c-3.475,3.133-8.83,2.855-11.963-0.619
				C272.319,266.009,271.608,263.743,271.741,261.555z"/>
		</g>
		
			<rect x="249.477" y="265.135" fill="#FFFFFF" stroke="#6D6E71" stroke-width="3" stroke-linecap="round" stroke-miterlimit="10" width="69.881" height="63.328"/>
		
			<polygon id="keyboard_4_" fill="#FFFFFF" stroke="#000000" stroke-linecap="round" stroke-linejoin="round" stroke-miterlimit="10" points="
			269.418,315.688 304.77,315.688 306.424,309.792 271.072,309.792 		"/>
		
			<line fill="none" stroke="#000000" stroke-linecap="round" stroke-linejoin="round" stroke-miterlimit="10" x1="302.873" y1="309.792" x2="300.744" y2="315.688"/>
		
			<line fill="none" stroke="#000000" stroke-linecap="round" stroke-linejoin="round" stroke-miterlimit="10" x1="299.512" y1="309.792" x2="297.383" y2="315.688"/>
		
			<line fill="none" stroke="#000000" stroke-linecap="round" stroke-linejoin="round" stroke-miterlimit="10" x1="296.303" y1="309.792" x2="294.174" y2="315.688"/>
		
			<line fill="none" stroke="#000000" stroke-linecap="round" stroke-linejoin="round" stroke-miterlimit="10" x1="292.982" y1="310.064" x2="290.854" y2="315.541"/>
		
			<line fill="none" stroke="#000000" stroke-linecap="round" stroke-linejoin="round" stroke-miterlimit="10" x1="290.268" y1="310.064" x2="288.699" y2="314.104"/>
		
			<line fill="none" stroke="#000000" stroke-linecap="round" stroke-linejoin="round" stroke-miterlimit="10" x1="286.918" y1="310.064" x2="285.441" y2="314.152"/>
		
			<line fill="none" stroke="#000000" stroke-linecap="round" stroke-linejoin="round" stroke-miterlimit="10" x1="283.523" y1="310.064" x2="281.395" y2="315.541"/>
		
			<line fill="none" stroke="#000000" stroke-linecap="round" stroke-linejoin="round" stroke-miterlimit="10" x1="279.113" y1="310.064" x2="277.135" y2="315.541"/>
		
			<line fill="none" stroke="#000000" stroke-linecap="round" stroke-linejoin="round" stroke-miterlimit="10" x1="275.234" y1="310.064" x2="274.838" y2="311.764"/>
		
			<line fill="none" stroke="#000000" stroke-linecap="round" stroke-linejoin="round" stroke-miterlimit="10" x1="301.809" y1="312.211" x2="270.584" y2="312.084"/>
		
			<line fill="none" stroke="#000000" stroke-linecap="round" stroke-linejoin="round" stroke-miterlimit="10" x1="305.199" y1="314.152" x2="270.26" y2="314.104"/>
		
			<line fill="none" stroke="#000000" stroke-linecap="round" stroke-linejoin="round" stroke-miterlimit="10" x1="273.379" y1="314.152" x2="272.998" y2="315.395"/>
		<g>
			<defs>
				<rect id="SVGID_13_" x="299.725" y="295.858" width="10.381" height="9.272"/>
			</defs>
			<clipPath id="SVGID_14_">
				<use xlink:href="#SVGID_13_"  overflow="visible"/>
			</clipPath>
			<g clip-path="url(#SVGID_14_)">
				<path fill="#FFFFFF" stroke="#27AAE1" stroke-linecap="round" stroke-linejoin="round" stroke-miterlimit="10" d="
					M304.82,302.389c0.223,0,0.436,0.095,0.629,0.264c0.193-0.169,0.406-0.264,0.627-0.264c0.916,0,1.658,1.584,1.658,3.537
					c0,1.952-0.742,3.535-1.658,3.535c-0.223,0-0.434-0.096-0.627-0.264c-0.193,0.168-0.406,0.264-0.629,0.264
					c-0.914,0-1.658-1.583-1.658-3.535C303.162,303.973,303.906,302.389,304.82,302.389z"/>
				
					<circle fill="#FFFFFF" stroke="#27AAE1" stroke-linecap="round" stroke-linejoin="round" stroke-miterlimit="10" cx="305.341" cy="300.297" r="2.716"/>
			</g>
		</g>
		
			<rect x="266.531" y="284.529" fill="#333333" stroke="#000000" stroke-linecap="round" stroke-linejoin="round" stroke-miterlimit="10" width="19.043" height="20.83"/>
		
			<rect x="266.566" y="272.911" fill="#333333" stroke="#000000" stroke-linecap="round" stroke-linejoin="round" stroke-miterlimit="10" width="19.043" height="12.403"/>
		<rect x="299.988" y="294.441" width="9.854" height="1.478"/>
		<g>
			<rect x="299.99" y="294.646" fill="none" width="10.541" height="1.432"/>
			<text transform="matrix(1 0 0 1 302.752 295.5244)" fill="#BCBEC0" font-family="'MyriadPro-Regular'" font-size="1.2375">Instructor</text>
		</g>
		
			<rect x="266.531" y="272.911" fill="none" stroke="#000000" stroke-linecap="round" stroke-linejoin="round" stroke-miterlimit="10" width="44" height="32.448"/>
		
			<rect x="300.148" y="296.079" fill="none" stroke="#000000" stroke-linecap="round" stroke-linejoin="round" stroke-miterlimit="10" width="10.383" height="9.28"/>
		<rect x="268.25" y="289.211" fill="none" width="15.676" height="14.539"/>
		<text transform="matrix(1 0 0 1 268.25 290.2939)"><tspan x="0" y="0" fill="#86C440" font-family="'Monaco'" font-size="1.375">v&lt;</tspan><tspan x="1.65" y="0" fill="#86C440" font-family="'Monaco'" font-size="1.1">h2 id=”title”&gt;</tspan><tspan x="0" y="1.32" fill="#86C440" font-family="'Monaco'" font-size="1.1">    Janet’s Website</tspan><tspan x="0" y="2.641" fill="#86C440" font-family="'Monaco'" font-size="1.1">&lt;/h2&gt;</tspan><tspan x="0" y="5.28" fill="#86C440" font-family="'Monaco'" font-size="1.1">&lt;style&gt;</tspan><tspan x="0" y="6.6" fill="#86C440" font-family="'Monaco'" font-size="1.1">  #title {</tspan><tspan x="0" y="7.92" fill="#86C440" font-family="'Monaco'" font-size="1.1">    color: red;</tspan><tspan x="0" y="9.24" fill="#86C440" font-family="'Monaco'" font-size="1.1">    text-align: center;</tspan><tspan x="0" y="10.89" fill="#86C440" font-family="'Monaco'" font-size="1.375">  }</tspan><tspan x="0" y="12.21" fill="#86C440" font-family="'Monaco'" font-size="1.1">&lt;/style&gt;</tspan></text>
		<rect x="285.857" y="276.535" fill="none" width="23.986" height="5.154"/>
		<text transform="matrix(1 0 0 1 292.3232 277.7549)" fill="#DA1C5C" font-family="'MyriadPro-Regular'" font-size="1.7187">Janet’s Website</text>
		<rect x="267.09" y="273.949" fill="none" width="18.486" height="1.684"/>
		<text transform="matrix(1 0 0 1 271.8926 274.9248)" fill="#BCBEC0" font-family="'MyriadPro-Regular'" font-size="1.375">Instructor Code</text>
		<rect x="268.188" y="276.004" fill="none" width="15.676" height="8.838"/>
		<text transform="matrix(1 0 0 1 268.1875 276.8701)"><tspan x="0" y="0" fill="#86C440" font-family="'Monaco'" font-size="1.1">&lt;h2 id=”title”&gt;</tspan><tspan x="0" y="1.32" fill="#86C440" font-family="'Monaco'" font-size="1.1">    Your Website title</tspan><tspan x="0" y="2.641" fill="#86C440" font-family="'Monaco'" font-size="1.1">&lt;/h2&gt;</tspan><tspan x="0" y="5.61" fill="#86C440" font-family="'Monaco'" font-size="1.1">&lt;style&gt;</tspan><tspan x="0" y="6.93" fill="#86C440" font-family="'Monaco'" font-size="1.1"> change the colo</tspan><tspan x="10.562" y="6.93" fill="#86C440" font-family="'Monaco'" font-size="1.1">r</tspan><tspan x="11.135" y="6.93" fill="#86C440" font-family="'Monaco'" font-size="1.1"> here</tspan></text>
		<rect x="267.09" y="285.863" fill="none" width="18.486" height="1.686"/>
		<text transform="matrix(1 0 0 1 272.3926 286.8389)" fill="#BCBEC0" font-family="'MyriadPro-Regular'" font-size="1.375">Student Code</text>
		<rect x="285.576" y="273.949" fill="none" width="24.955" height="1.684"/>
		<text transform="matrix(1 0 0 1 295.7773 274.9248)" fill="#939598" font-family="'MyriadPro-Regular'" font-size="1.375">Preview</text>
		<polygon fill="#6D6E71" points="248.195,264.135 284.416,253.721 320.639,264.135 		"/>
		<g>
			<defs>
				<rect id="SVGID_15_" x="262.613" y="285.008" width="46.295" height="38.869"/>
			</defs>
			<clipPath id="SVGID_16_">
				<use xlink:href="#SVGID_15_"  overflow="visible"/>
			</clipPath>
			
				<path clip-path="url(#SVGID_16_)" fill="#FFFFFF" stroke="#C94F50" stroke-linecap="round" stroke-linejoin="round" stroke-miterlimit="10" d="
				M283.717,305.536c0.855,0,1.672,0.362,2.418,1.012c0.746-0.649,1.561-1.012,2.416-1.012c3.525,0,6.383,6.093,6.383,13.608
				c0,7.518-2.857,13.609-6.383,13.609c-0.855,0-1.67-0.361-2.416-1.012c-0.746,0.65-1.562,1.012-2.418,1.012
				c-3.523,0-6.383-6.092-6.383-13.609C277.334,311.629,280.193,305.536,283.717,305.536z"/>
		</g>
		
			<circle fill="#FFFFFF" stroke="#C94F50" stroke-linecap="round" stroke-linejoin="round" stroke-miterlimit="10" cx="285.714" cy="297.482" r="10.454"/>
		
			<line fill="none" stroke="#C94F50" stroke-linecap="round" stroke-miterlimit="10" x1="277.83" y1="323.223" x2="294.223" y2="323.223"/>
	</g>
</g>
</svg>
