<?xml version="1.0" encoding="utf-8"?>
<!-- Generator: Adobe Illustrator 16.0.0, SVG Export Plug-In . SVG Version: 6.00 Build 0)  -->
<!DOCTYPE svg PUBLIC "-//W3C//DTD SVG 1.1//EN" "http://www.w3.org/Graphics/SVG/1.1/DTD/svg11.dtd">
<svg version="1.1" xmlns="http://www.w3.org/2000/svg" xmlns:xlink="http://www.w3.org/1999/xlink" x="0px" y="0px" width="350px"
	 height="350px" viewBox="0 0 350 350" enable-background="new 0 0 350 350" xml:space="preserve">
<g id="Layer_1">
</g>
<g id="map_arcs">
	<g id="computer_3">
		
			<path fill="#FFFFFF" stroke="#27AAE1" stroke-width="3" stroke-linecap="round" stroke-linejoin="round" stroke-miterlimit="10" d="
			M54.88,138.587c1.313,0,2.565,0.555,3.709,1.554c1.145-0.998,2.396-1.554,3.708-1.554c5.409,0,9.794,9.349,9.794,20.881
			c0,11.531-4.385,20.879-9.794,20.879c-1.313,0-2.563-0.553-3.708-1.553c-1.144,1-2.396,1.553-3.709,1.553
			c-5.408,0-9.793-9.348-9.793-20.881C45.087,147.936,49.472,138.587,54.88,138.587z"/>
		
			<circle fill="#FFFFFF" stroke="#27AAE1" stroke-width="3" stroke-linecap="round" stroke-linejoin="round" stroke-miterlimit="10" cx="57.945" cy="126.233" r="16.04"/>
		
			<line fill="none" stroke="#939598" stroke-width="2" stroke-linecap="round" stroke-linejoin="round" stroke-miterlimit="10" x1="31.494" y1="180.809" x2="29.369" y2="162.594"/>
		
			<line fill="none" stroke="#939598" stroke-width="2" stroke-linecap="round" stroke-linejoin="round" stroke-miterlimit="10" x1="85.608" y1="178.967" x2="87.425" y2="162.342"/>
		
			<rect x="31.211" y="159.167" fill="#FFFFFF" stroke="#939598" stroke-width="2" stroke-linecap="round" stroke-linejoin="round" stroke-miterlimit="10" width="54.397" height="21.642"/>
		
			<line fill="none" stroke="#939598" stroke-width="2" stroke-linecap="round" stroke-linejoin="round" stroke-miterlimit="10" x1="31.211" y1="182.342" x2="85.608" y2="182.342"/>
		<g id="Logos">
			<rect x="35.5" y="165" fill="none" width="45.5" height="10.75"/>
			<text transform="matrix(1 0 0 1 37.3613 171.6147)" font-family="'VarelaRound-Regular'" font-size="9">instructor</text>
		</g>
	</g>
</g>
<g id="student_4">
	<g id="person_copy_3">
		<rect x="218.85" y="125.792" fill="#FFFFFF" width="10.867" height="3.809"/>
		<g>
			<g>
				<path fill="#FFFFFF" stroke="#010101" d="M277.296,158.84l1.742-1.743l1.395-1.743l0.349-1.394l2.788-2.439l2.091-2.091
					l-0.697-1.045l-1.394-0.349l-0.697-1.394l-1.395-0.349l-0.696-1.045l-0.697-3.137l-1.046-2.091l-1.395-0.349l-1.742,1.394
					l-0.697-0.349h-1.045l-1.046,2.789v2.788l0.349,3.137l-1.046,2.091l-1.394,1.394v1.045l-2.789,0.349l-2.788,1.045l-4.53,1.395
					l-4.531,5.228l1.046,0.697v2.439l-3.137,2.439l-5.577,0.349l1.046,3.137l-2.439,2.092l-2.788,2.788l-3.485,2.439l-2.092,0.697
					h-2.091l-1.395-0.697v-2.091l2.092-2.44v-2.091l-0.697-1.394l-0.697-2.789l-0.697-0.696l-0.696,0.696l-2.092,2.44l-0.696-0.349
					l-0.349-1.046l1.394-2.091l0.349-0.349v-2.091l-0.697-0.697v-1.395l-1.045-0.349l-1.395-0.349l-1.742-1.045h-0.697l-1.046,0.697
					v1.394l-0.349,0.349l-0.349,1.395l-0.348,1.045h-1.395l-0.349,0.697v1.742l-0.697,1.395v2.439l0.697,1.395l0.697,1.045v1.046
					v2.44l-0.697,1.394l-0.26,1.374l-0.089,0.021l-0.697,0.696h-1.742l-2.07-3.794c0.026-0.001,0.044-0.001,0.047,0.001
					l-0.416-6.662l0.697-1.395l0.348-2.439l0.349-1.743l-1.045,1.395l-1.395,1.394v-1.394l0.697-0.697l-0.697-3.485l0.349,1.046
					l0.349,1.394l2.091-3.137l1.046-0.348l0.697-1.046h1.394l1.743-1.046l1.045,0.349l2.788-0.349l0.349-1.045l-0.349-1.394
					l-2.091,0.349h-1.046l-0.348-1.046l-3.137,1.046l-1.046,1.045h-2.439l-1.743-1.394l-2.091,0.349v-1.046l1.046-1.394
					l-0.697-0.349l-3.137,2.789l-3.137,1.394l-2.44-0.349l-1.045-0.349l-2.092,0.697l-1.045,0.697l2.788-3.137l2.439-2.44
					l3.137-1.742h-2.788l-0.697-0.697h-1.046l-0.696,0.349h-1.743l-1.045-0.697l-1.046,0.349l-0.697-1.045l-2.091-0.349
					l-0.697,0.349h-1.046l-3.137-2.091h-7.319l-11.152-0.349l-10.456-0.697l-8.364-1.045l-9.759-1.395l-12.547-2.439l-5.926-1.394
					l-2.461-0.616l0.021-0.082l-11.85-3.485l-5.228-2.092l0.348,2.092l-0.697,1.394l0.35,2.439l-1.046,1.045l-0.697,2.091
					l-1.395-0.349l0.349-1.743l1.046-1.394l-0.697-1.394c0,0-3.137-3.137-3.485-3.137s-1.045,0.697-1.045,0.697v1.743l-0.349,3.485
					v2.789l-0.708,2.091l2.102,0.349l0.349,0.697l1.046,1.045l-0.697,1.743l1.046,0.697h-0.349l-1.046-0.697l0.349-0.697
					l0.349-1.045l-1.046-1.045l-0.349-0.697l-2.091-0.349l-1.046,3.485l-3.485,7.319l-2.788,4.183v1.394v1.046v1.045l-0.349,3.834
					l-1.394,2.44l-1.046,0.696v2.092l0.697,0.696v2.092l-0.697,0.697v3.484l1.395,1.743v2.439l1.045,0.697l1.046-0.349l0.349,1.046
					l-0.349,1.045l-1.046-0.696l-0.348,0.696v2.44l1.742,1.394l-0.349,1.046h-0.697l-0.349,0.697l2.789,6.622l0.696,1.742
					l-0.696,0.697v1.046l1.394,1.394l1.743,0.697l1.394,1.046l0.349,1.394h2.091l0.697,0.349v1.046l1.046,0.697l2.091,3.485
					l0.349,3.137l9.41,1.394l-0.349,0.697l13.941,8.365l8.364,1.394l3.137,0.349l0.697-1.742l1.046-0.349l4.879,1.045v-0.349
					l6.622,6.622l1.046,4.183l5.576,3.485l1.046-0.697l1.742-2.788l1.046-0.349l1.743,0.349l1.742,0.349l2.439,2.091l1.046,2.788
					l1.742,3.138l2.44,2.788l0.348,2.091l2.092,3.485l2.788,1.394h2.439l0.697,1.046h1.046v-2.091l-0.697-4.531l1.046-2.788
					l1.045-2.091l2.092-1.743l2.091-0.349h2.091l0.697-1.045l1.395-1.395l-0.349-1.742l1.046-0.697l0.696,1.395l1.046-0.349
					l2.091-1.046l0.349-0.697l0.313-1.568l0.035,0.175c0,0-0.349,2.091-0.697,2.439h3.834l1.743,0.697l2.091-0.349l1.046-0.697
					l0.697,0.697l1.394,1.742l1.395,0.349l1.394-0.697l1.743,0.349l1.045-0.349v-1.045l1.743,1.394l1.394,0.697l0.697-0.697v-1.045
					l-2.439-0.697v-0.697l0.349-0.349l0.697-1.395l0.349-0.696h2.439l0.697-1.046h2.091l1.742-1.046l4.183-0.696l1.046,0.348
					l2.439,0.349l1.394,2.44l1.395,0.348l2.788-2.788l2.091,0.349l2.44,2.092l2.788,1.742v2.788l-0.697,1.046l0.349,1.045
					l0.697-0.348h1.045l0.349,0.696v2.092l1.046,1.742h1.046l0.348,1.395l0.698,0.349l0.696,2.439l1.743,0.349l1.742,2.091
					l1.046,0.349l2.091-0.349l0.697-1.394l-0.349-6.971l-0.697-1.046l-3.485-4.879l-0.349-2.092l-3.136-4.182l-1.395-4.531v-4.531
					l0.696-1.045l0.35-1.046h0.696l0.349-1.743l0.349-0.696h1.395l1.045-1.046v-1.046l1.046-1.046l1.046-0.696v-1.395l1.046-1.394
					l1.045-1.395h-0.349l1.743-0.697l1.045-0.349v-1.394l2.092-2.092l0.697-0.696l1.742-0.697v-1.046l-1.046-1.046l-0.349-0.696
					l2.789-0.697l0.696-0.697l-0.349-1.046l-1.045-0.348h-2.092v-0.349l1.395-0.697l0.697-1.046l-0.349-1.046l-0.697-1.394h-1.743
					l-1.045-1.046l0.697-1.045l-1.046-1.395l1.046-0.349l-1.395-1.046l-1.742-0.697l-1.046-0.696l1.395,0.349h1.742l-0.697-1.395
					l-0.349-3.485l1.743,3.834l1.742,1.394l0.349,0.349l1.743-0.696v-1.743h0.349v-0.697l-2.789-3.137v-0.348l-0.697-1.395
					l0.35,2.091l-0.35-1.742v-0.349v-0.349c0,0-12.895,3.485-13.592,3.485l13.592-3.485l0.697,1.743l0.349-0.35l2.092,1.395
					l1.394-2.439l0.349-1.743v-1.742l-0.349-1.394l-0.697-0.698l0.349-0.696l0.697-0.349l1.395,0.349l4.182-3.137l-0.696-0.349
					l-3.137,1.742h-1.395l4.183-2.788h1.394v-0.696l1.395-0.697v-1.743l-1.046-1.046l-1.045,0.349l-5.926,1.395l6.971-1.743
					l1.743,1.395h1.045l0.349,1.046h1.395l-0.349-1.046l1.394-1.046l0.349-0.696l-0.696-1.046h-1.046l0.697,1.046h-1.046
					l-1.394-1.046l-1.046-1.046l0.349-1.394l-1.046-0.349l-5.228,2.091l3.137-1.394l2.091-0.697l0.349-1.395L277.296,158.84z
					 M175.525,215.65l0.336-8.056l0.013,0.039l-0.334,8.026L175.525,215.65z M191.906,188.813l2.031,1.741l-0.299-0.008
					L191.906,188.813z M187.375,190.382l-6.622-0.175l-11.501-0.696l11.85,0.696L187.375,190.382z M173.435,175.918l-10.456-0.697
					l18.82,1.046L173.435,175.918z M196.438,206.937l-0.195-1.366C196.354,206.241,196.481,206.959,196.438,206.937l8.713-0.348
					h0.349L196.438,206.937z M244.883,203.103l-2.092,1.395l2.788-2.091L244.883,203.103z M248.367,217.741l1.046,1.046
					l-5.228-4.531L248.367,217.741z M254.989,187.419l-2.439,3.137l1.046-1.394L254.989,187.419z M246.974,197.875l1.046-0.697
					l1.742-1.045L246.974,197.875z M245.928,186.374l0.329-3.621l0.02,0.136L245.928,186.374z M220.834,199.27l-1.742,2.788
					l1.742-3.137V199.27z M162.281,184.282l-8.017-0.696l-9.758-1.046L162.281,184.282z M140.673,162.325l-3.485,18.82l0.696-4.531
					l2.44-12.546L140.673,162.325z M119.761,164.068l-0.349,1.742l-1.394,6.273L119.761,164.068z M116.973,151.521l3.834,1.394
					l1.757,0.293l-0.015,0.055l-2.091-0.348l-3.834-1.394H116.973z M107.911,150.475l1.395,0.697l3.484,0.349h-0.349l-3.485-0.349
					l-1.394-0.697H107.911z M141.718,201.36l23.003,2.439v1.743h-0.29l0.29-1.743l-10.456-1.045L141.718,201.36z M200.672,234.384
					l-0.053-0.262l0.944-1.572l0.102,0.179L200.672,234.384z M221.531,212.514l9.759-1.395l-4.183,0.697
					C227.107,211.816,222.229,212.514,221.531,212.514z M266.213,173.688l0.627,0.139l2.439,0.697L266.213,173.688z"/>
				<polygon fill="#FFFFFF" stroke="#010101" points="265.794,194.041 266.84,192.647 266.84,190.904 266.143,190.556 
					265.794,192.299 				"/>
			</g>
			<rect x="114.358" y="159.188" fill="#FFFFFF" width="97.065" height="54.37"/>
			<rect x="101.289" y="145.596" fill="#FFFFFF" width="22.306" height="11.501"/>
			<rect x="162.892" y="189.162" fill="#FFFFFF" width="88.438" height="30.147"/>
			<rect x="237.041" y="181.843" fill="#FFFFFF" width="20.737" height="10.456"/>
			<rect x="256.21" y="178.706" fill="#FFFFFF" width="8.539" height="5.751"/>
			<rect x="194.869" y="230.288" fill="#FFFFFF" width="10.455" height="4.705"/>
			<rect x="198.877" y="235.517" fill="#FFFFFF" width="5.228" height="2.788"/>
			<rect x="268.582" y="161.279" fill="#FFFFFF" width="7.493" height="5.054"/>
			<rect x="266.491" y="166.502" fill="#FFFFFF" width="9.759" height="3.11"/>
			<rect x="265.794" y="173.146" fill="#FFFFFF" width="3.485" height="2.059"/>
		</g>
		<ellipse fill="none" stroke="#C94F50" stroke-miterlimit="10" cx="199.502" cy="214.595" rx="3.833" ry="3.921"/>
		<circle fill="none" stroke="#408080" stroke-miterlimit="10" cx="94.272" cy="185.328" r="5"/>
		<g display="none">
			<defs>
				<rect id="SVGID_1_" x="221.406" y="97.811" width="46.295" height="38.869"/>
			</defs>
			<clipPath id="SVGID_2_" display="inline">
				<use xlink:href="#SVGID_1_"  overflow="visible"/>
			</clipPath>
			
				<path display="inline" clip-path="url(#SVGID_2_)" fill="#FFFFFF" stroke="#C94F50" stroke-linecap="round" stroke-linejoin="round" stroke-miterlimit="10" d="
				M242.51,118.338c0.856,0,1.672,0.362,2.418,1.012c0.746-0.65,1.562-1.012,2.416-1.012c3.525,0,6.384,6.093,6.384,13.608
				c0,7.517-2.858,13.609-6.384,13.609c-0.854,0-1.67-0.361-2.416-1.012c-0.746,0.651-1.562,1.012-2.418,1.012
				c-3.523,0-6.382-6.092-6.382-13.609C236.128,124.432,238.986,118.338,242.51,118.338z"/>
		</g>
		
			<circle display="none" fill="#FFFFFF" stroke="#C94F50" stroke-linecap="round" stroke-linejoin="round" stroke-miterlimit="10" cx="244.508" cy="110.285" r="10.454"/>
		
			<line display="none" fill="none" stroke="#C94F50" stroke-linecap="round" stroke-miterlimit="10" x1="236.433" y1="136.68" x2="252.826" y2="136.68"/>
	</g>
	<g id="box">
		<g>
			<path fill="#6D6E71" d="M273.463,137.802c0,0-0.358,0.24-0.994,0.722c-0.647,0.472-1.578,1.18-2.732,2.105
				c-2.331,1.833-5.556,4.538-9.254,7.924c-1.844,1.698-3.822,3.552-5.859,5.559c-2.044,2.002-4.168,4.139-6.309,6.396
				c-1.081,1.12-2.162,2.272-3.242,3.452c-1.092,1.169-2.182,2.366-3.266,3.583c-2.179,2.426-4.393,4.891-6.606,7.356
				c-2.245,2.441-4.414,4.945-6.587,7.377c-2.165,2.439-4.3,4.835-6.316,7.195c-2.023,2.355-4.005,4.609-5.837,6.786
				s-3.563,4.235-5.161,6.136c-1.575,1.92-3.02,3.68-4.299,5.239c-1.262,1.575-2.362,2.948-3.269,4.079
				c-1.78,2.288-2.798,3.596-2.798,3.596c-0.374,0.48-1.065,0.566-1.545,0.193c-0.48-0.374-0.566-1.065-0.193-1.545
				c0.014-0.018,0.027-0.034,0.042-0.051l0.022-0.025c0,0,1.096-1.24,3.014-3.409c0.942-1.099,2.088-2.432,3.401-3.961
				c1.296-1.545,2.758-3.288,4.353-5.188c1.571-1.921,3.274-4.002,5.075-6.203c1.8-2.201,3.648-4.563,5.588-6.985
				c1.945-2.416,3.905-4.955,5.9-7.531c1.985-2.583,4.049-5.169,6.022-7.829c1.978-2.659,3.955-5.319,5.901-7.937
				c0.979-1.304,1.936-2.609,2.865-3.912c0.941-1.292,1.857-2.582,2.74-3.864c1.789-2.546,3.463-5.053,5.021-7.455
				c1.563-2.396,2.99-4.705,4.29-6.851c2.588-4.299,4.603-7.999,5.938-10.65c0.679-1.316,1.188-2.37,1.523-3.099
				c0.347-0.719,0.512-1.12,0.512-1.12c1.715-4.17,6.487-6.161,10.657-4.445c4.171,1.716,6.161,6.487,4.445,10.658
				c-0.642,1.56-1.71,2.814-3.015,3.684L273.463,137.802z"/>
		</g>
		<polygon fill="#6D6E71" points="210.691,132.492 265.149,143.657 319.609,132.492 		"/>
		
			<rect x="211.367" y="35.019" fill="#FFFFFF" stroke="#6D6E71" stroke-width="3" stroke-linecap="round" stroke-miterlimit="10" width="106.959" height="96.932"/>
		<path fill="none" stroke="#6D6E71" stroke-linecap="round" stroke-miterlimit="10" d="M96.333,185.328
			c0,0,70.527-27.473,103.764,29.267"/>
	</g>
	<polygon fill="none" stroke="#8B5E3C" stroke-linecap="round" stroke-miterlimit="10" points="312.246,117.426 230.971,117.426 
		226.485,110.395 307.761,110.395 	"/>
	<g id="table">
	</g>
	<g id="screen">
		
			<rect x="238.604" y="55.365" fill="none" stroke="#000000" stroke-linecap="round" stroke-miterlimit="10" width="50.702" height="26.321"/>
	</g>
	<g id="teacher_table">
		
			<rect x="226.845" y="95.186" fill="#8B5E3C" stroke="#8B5E3C" stroke-linecap="round" stroke-miterlimit="10" width="6.605" height="1.25"/>
		
			<line fill="none" stroke="#8B5E3C" stroke-linecap="round" stroke-miterlimit="10" x1="226.845" y1="95.436" x2="226.845" y2="102.184"/>
		
			<line fill="none" stroke="#8B5E3C" stroke-linecap="round" stroke-miterlimit="10" x1="233.45" y1="96.436" x2="233.45" y2="102.341"/>
	</g>
	<g id="student_1_laptop">
		<polygon fill="#FFFFFF" stroke="#000000" stroke-linecap="round" stroke-miterlimit="10" points="286.395,115.248 
			273.352,115.248 271.934,110.906 284.978,110.906 		"/>
		
			<rect x="272.144" y="103.856" fill="#333333" stroke="#000000" stroke-linecap="round" stroke-linejoin="round" stroke-miterlimit="10" width="5.461" height="6.662"/>
		
			<rect x="272.154" y="100.14" fill="#333333" stroke="#000000" stroke-linecap="round" stroke-linejoin="round" stroke-miterlimit="10" width="5.461" height="3.967"/>
		
			<rect x="272.144" y="100.14" fill="none" stroke="#000000" stroke-linecap="round" stroke-linejoin="round" stroke-miterlimit="10" width="12.617" height="10.378"/>
		<rect x="272.637" y="105.352" fill="none" width="4.494" height="4.65"/>
		<text transform="matrix(0.8966 0 0 1 272.6367 105.6973)"><tspan x="0" y="0" fill="#86C440" font-family="'Monaco'" font-size="0.4386">&lt;</tspan><tspan x="0.264" y="0" fill="#86C440" font-family="'Monaco'" font-size="0.3509">h2 id=”title”&gt;</tspan><tspan x="0" y="0.421" fill="#86C440" font-family="'Monaco'" font-size="0.3509">    Paul’s Website</tspan><tspan x="0" y="0.842" fill="#86C440" font-family="'Monaco'" font-size="0.3509">&lt;/h2&gt;</tspan><tspan x="0" y="1.684" fill="#86C440" font-family="'Monaco'" font-size="0.3509">&lt;style&gt;</tspan><tspan x="0" y="2.105" fill="#86C440" font-family="'Monaco'" font-size="0.3509">  #title {</tspan><tspan x="0" y="2.526" fill="#86C440" font-family="'Monaco'" font-size="0.3509">    color: red;</tspan><tspan x="0" y="2.947" fill="#86C440" font-family="'Monaco'" font-size="0.3509">    text-align: center;</tspan><tspan x="0" y="3.473" fill="#86C440" font-family="'Monaco'" font-size="0.4386">  }</tspan><tspan x="0" y="3.895" fill="#86C440" font-family="'Monaco'" font-size="0.3509">&lt;/style&gt;</tspan></text>
		<rect x="277.687" y="101.298" fill="none" width="6.877" height="1.649"/>
		<text transform="matrix(0.8966 0 0 1 279.7031 101.687)" fill="#DA1C5C" font-family="'MyriadPro-Regular'" font-size="0.5482">Pauls Website</text>
		<rect x="272.619" y="101.129" fill="none" width="4.495" height="2.826"/>
		<text transform="matrix(0.8966 0 0 1 272.6191 101.4053)"><tspan x="0" y="0" fill="#86C440" font-family="'Monaco'" font-size="0.3509">&lt;h2 id=”title”&gt;</tspan><tspan x="0" y="0.421" fill="#86C440" font-family="'Monaco'" font-size="0.3509">    Your Website title</tspan><tspan x="0" y="0.842" fill="#86C440" font-family="'Monaco'" font-size="0.3509">&lt;/h2&gt;</tspan><tspan x="0" y="1.79" fill="#86C440" font-family="'Monaco'" font-size="0.3509">&lt;style&gt;</tspan><tspan x="0" y="2.21" fill="#86C440" font-family="'Monaco'" font-size="0.3509"> change the colo</tspan><tspan x="3.363" y="2.21" fill="#86C440" font-family="'Monaco'" font-size="0.3509">r</tspan><tspan x="3.545" y="2.21" fill="#86C440" font-family="'Monaco'" font-size="0.3509"> here</tspan></text>
		<rect x="272.304" y="104.282" fill="none" width="5.302" height="0.538"/>
		<text transform="matrix(0.8966 0 0 1 273.8281 104.5938)" fill="#BCBEC0" font-family="'MyriadPro-Regular'" font-size="0.4386">Student Code</text>
	</g>
	<g id="student_2_laptop">
		<polygon fill="#FFFFFF" stroke="#000000" stroke-linecap="round" stroke-miterlimit="10" points="308.011,115.248 
			294.967,115.248 293.55,110.906 306.594,110.906 		"/>
		
			<rect x="293.76" y="103.856" fill="#333333" stroke="#000000" stroke-linecap="round" stroke-linejoin="round" stroke-miterlimit="10" width="5.461" height="6.662"/>
		
			<rect x="293.77" y="100.14" fill="#333333" stroke="#000000" stroke-linecap="round" stroke-linejoin="round" stroke-miterlimit="10" width="5.461" height="3.967"/>
		
			<rect x="293.76" y="100.14" fill="none" stroke="#000000" stroke-linecap="round" stroke-linejoin="round" stroke-miterlimit="10" width="12.617" height="10.378"/>
		<rect x="294.253" y="105.352" fill="none" width="4.494" height="4.65"/>
		<text transform="matrix(0.8966 0 0 1 294.2529 105.6973)"><tspan x="0" y="0" fill="#86C440" font-family="'Monaco'" font-size="0.4386">&lt;</tspan><tspan x="0.264" y="0" fill="#86C440" font-family="'Monaco'" font-size="0.3509">h2 id=”title”&gt;</tspan><tspan x="0" y="0.421" fill="#86C440" font-family="'Monaco'" font-size="0.3509">    Paul’s Website</tspan><tspan x="0" y="0.842" fill="#86C440" font-family="'Monaco'" font-size="0.3509">&lt;/h2&gt;</tspan><tspan x="0" y="1.684" fill="#86C440" font-family="'Monaco'" font-size="0.3509">&lt;style&gt;</tspan><tspan x="0" y="2.105" fill="#86C440" font-family="'Monaco'" font-size="0.3509">  #title {</tspan><tspan x="0" y="2.526" fill="#86C440" font-family="'Monaco'" font-size="0.3509">    color: red;</tspan><tspan x="0" y="2.947" fill="#86C440" font-family="'Monaco'" font-size="0.3509">    text-align: center;</tspan><tspan x="0" y="3.473" fill="#86C440" font-family="'Monaco'" font-size="0.4386">  }</tspan><tspan x="0" y="3.895" fill="#86C440" font-family="'Monaco'" font-size="0.3509">&lt;/style&gt;</tspan></text>
		<rect x="299.303" y="101.298" fill="none" width="6.877" height="1.649"/>
		<text transform="matrix(0.8966 0 0 1 301.3193 101.687)" fill="#DA1C5C" font-family="'MyriadPro-Regular'" font-size="0.5482">Pauls Website</text>
		<rect x="294.234" y="101.129" fill="none" width="4.496" height="2.826"/>
		<text transform="matrix(0.8966 0 0 1 294.2344 101.4053)"><tspan x="0" y="0" fill="#86C440" font-family="'Monaco'" font-size="0.3509">&lt;h2 id=”title”&gt;</tspan><tspan x="0" y="0.421" fill="#86C440" font-family="'Monaco'" font-size="0.3509">    Your Website title</tspan><tspan x="0" y="0.842" fill="#86C440" font-family="'Monaco'" font-size="0.3509">&lt;/h2&gt;</tspan><tspan x="0" y="1.79" fill="#86C440" font-family="'Monaco'" font-size="0.3509">&lt;style&gt;</tspan><tspan x="0" y="2.21" fill="#86C440" font-family="'Monaco'" font-size="0.3509"> change the colo</tspan><tspan x="3.363" y="2.21" fill="#86C440" font-family="'Monaco'" font-size="0.3509">r</tspan><tspan x="3.545" y="2.21" fill="#86C440" font-family="'Monaco'" font-size="0.3509"> here</tspan></text>
		<rect x="293.92" y="104.282" fill="none" width="5.302" height="0.538"/>
		<text transform="matrix(0.8966 0 0 1 295.4443 104.5938)" fill="#BCBEC0" font-family="'MyriadPro-Regular'" font-size="0.4386">Student Code</text>
	</g>
	<g id="student_3_laptop">
		<polygon fill="#FFFFFF" stroke="#000000" stroke-linecap="round" stroke-miterlimit="10" points="246.406,115.248 
			233.362,115.248 231.944,110.906 244.988,110.906 		"/>
		
			<rect x="232.155" y="103.856" fill="#333333" stroke="#000000" stroke-linecap="round" stroke-linejoin="round" stroke-miterlimit="10" width="5.46" height="6.662"/>
		
			<rect x="232.165" y="100.14" fill="#333333" stroke="#000000" stroke-linecap="round" stroke-linejoin="round" stroke-miterlimit="10" width="5.46" height="3.967"/>
		
			<rect x="232.155" y="100.14" fill="none" stroke="#000000" stroke-linecap="round" stroke-linejoin="round" stroke-miterlimit="10" width="12.616" height="10.378"/>
		<rect x="232.648" y="105.352" fill="none" width="4.493" height="4.65"/>
		<text transform="matrix(0.8966 0 0 1 232.6484 105.6973)"><tspan x="0" y="0" fill="#86C440" font-family="'Monaco'" font-size="0.4386">&lt;</tspan><tspan x="0.264" y="0" fill="#86C440" font-family="'Monaco'" font-size="0.3509">h2 id=”title”&gt;</tspan><tspan x="0" y="0.421" fill="#86C440" font-family="'Monaco'" font-size="0.3509">    Paul’s Website</tspan><tspan x="0" y="0.842" fill="#86C440" font-family="'Monaco'" font-size="0.3509">&lt;/h2&gt;</tspan><tspan x="0" y="1.684" fill="#86C440" font-family="'Monaco'" font-size="0.3509">&lt;style&gt;</tspan><tspan x="0" y="2.105" fill="#86C440" font-family="'Monaco'" font-size="0.3509">  #title {</tspan><tspan x="0" y="2.526" fill="#86C440" font-family="'Monaco'" font-size="0.3509">    color: red;</tspan><tspan x="0" y="2.947" fill="#86C440" font-family="'Monaco'" font-size="0.3509">    text-align: center;</tspan><tspan x="0" y="3.473" fill="#86C440" font-family="'Monaco'" font-size="0.4386">  }</tspan><tspan x="0" y="3.895" fill="#86C440" font-family="'Monaco'" font-size="0.3509">&lt;/style&gt;</tspan></text>
		<rect x="237.696" y="101.298" fill="none" width="6.878" height="1.649"/>
		<text transform="matrix(0.8966 0 0 1 239.7129 101.687)" fill="#DA1C5C" font-family="'MyriadPro-Regular'" font-size="0.5482">Pauls Website</text>
		<rect x="232.63" y="101.129" fill="none" width="4.495" height="2.826"/>
		<text transform="matrix(0.8966 0 0 1 232.6299 101.4053)"><tspan x="0" y="0" fill="#86C440" font-family="'Monaco'" font-size="0.3509">&lt;h2 id=”title”&gt;</tspan><tspan x="0" y="0.421" fill="#86C440" font-family="'Monaco'" font-size="0.3509">    Your Website title</tspan><tspan x="0" y="0.842" fill="#86C440" font-family="'Monaco'" font-size="0.3509">&lt;/h2&gt;</tspan><tspan x="0" y="1.79" fill="#86C440" font-family="'Monaco'" font-size="0.3509">&lt;style&gt;</tspan><tspan x="0" y="2.21" fill="#86C440" font-family="'Monaco'" font-size="0.3509"> change the colo</tspan><tspan x="3.363" y="2.21" fill="#86C440" font-family="'Monaco'" font-size="0.3509">r</tspan><tspan x="3.545" y="2.21" fill="#86C440" font-family="'Monaco'" font-size="0.3509"> here</tspan></text>
		<rect x="232.314" y="104.282" fill="none" width="5.303" height="0.538"/>
		<text transform="matrix(0.8966 0 0 1 233.8389 104.5938)" fill="#BCBEC0" font-family="'MyriadPro-Regular'" font-size="0.4386">Student Code</text>
	</g>
	<g id="student_4_laptop">
		<polygon fill="#FFFFFF" stroke="#000000" stroke-linecap="round" stroke-miterlimit="10" points="266.94,115.248 253.897,115.248 
			252.479,110.906 265.523,110.906 		"/>
		
			<rect x="252.689" y="103.856" fill="#333333" stroke="#000000" stroke-linecap="round" stroke-linejoin="round" stroke-miterlimit="10" width="5.461" height="6.662"/>
		
			<rect x="252.7" y="100.14" fill="#333333" stroke="#000000" stroke-linecap="round" stroke-linejoin="round" stroke-miterlimit="10" width="5.459" height="3.967"/>
		
			<rect x="252.689" y="100.14" fill="none" stroke="#000000" stroke-linecap="round" stroke-linejoin="round" stroke-miterlimit="10" width="12.618" height="10.378"/>
		<rect x="253.183" y="105.352" fill="none" width="4.494" height="4.65"/>
		<text transform="matrix(0.8966 0 0 1 253.1826 105.6973)"><tspan x="0" y="0" fill="#86C440" font-family="'Monaco'" font-size="0.4386">&lt;</tspan><tspan x="0.264" y="0" fill="#86C440" font-family="'Monaco'" font-size="0.3509">h2 id=”title”&gt;</tspan><tspan x="0" y="0.421" fill="#86C440" font-family="'Monaco'" font-size="0.3509">    Paul’s Website</tspan><tspan x="0" y="0.842" fill="#86C440" font-family="'Monaco'" font-size="0.3509">&lt;/h2&gt;</tspan><tspan x="0" y="1.684" fill="#86C440" font-family="'Monaco'" font-size="0.3509">&lt;style&gt;</tspan><tspan x="0" y="2.105" fill="#86C440" font-family="'Monaco'" font-size="0.3509">  #title {</tspan><tspan x="0" y="2.526" fill="#86C440" font-family="'Monaco'" font-size="0.3509">    color: red;</tspan><tspan x="0" y="2.947" fill="#86C440" font-family="'Monaco'" font-size="0.3509">    text-align: center;</tspan><tspan x="0" y="3.473" fill="#86C440" font-family="'Monaco'" font-size="0.4386">  }</tspan><tspan x="0" y="3.895" fill="#86C440" font-family="'Monaco'" font-size="0.3509">&lt;/style&gt;</tspan></text>
		<rect x="258.232" y="101.298" fill="none" width="6.877" height="1.649"/>
		<text transform="matrix(0.8966 0 0 1 260.249 101.687)" fill="#DA1C5C" font-family="'MyriadPro-Regular'" font-size="0.5482">Pauls Website</text>
		<rect x="253.165" y="101.129" fill="none" width="4.494" height="2.826"/>
		<text transform="matrix(0.8966 0 0 1 253.165 101.4053)"><tspan x="0" y="0" fill="#86C440" font-family="'Monaco'" font-size="0.3509">&lt;h2 id=”title”&gt;</tspan><tspan x="0" y="0.421" fill="#86C440" font-family="'Monaco'" font-size="0.3509">    Your Website title</tspan><tspan x="0" y="0.842" fill="#86C440" font-family="'Monaco'" font-size="0.3509">&lt;/h2&gt;</tspan><tspan x="0" y="1.79" fill="#86C440" font-family="'Monaco'" font-size="0.3509">&lt;style&gt;</tspan><tspan x="0" y="2.21" fill="#86C440" font-family="'Monaco'" font-size="0.3509"> change the colo</tspan><tspan x="3.363" y="2.21" fill="#86C440" font-family="'Monaco'" font-size="0.3509">r</tspan><tspan x="3.545" y="2.21" fill="#86C440" font-family="'Monaco'" font-size="0.3509"> here</tspan></text>
		<rect x="252.85" y="104.282" fill="none" width="5.302" height="0.538"/>
		<text transform="matrix(0.8966 0 0 1 254.374 104.5938)" fill="#BCBEC0" font-family="'MyriadPro-Regular'" font-size="0.4386">Student Code</text>
		
			<rect x="263.955" y="56.852" fill="none" stroke="#000000" stroke-linecap="round" stroke-linejoin="round" stroke-miterlimit="10" width="23.721" height="22.833"/>
	</g>
	<g id="student_1">
		<g>
			<defs>
				<rect id="SVGID_3_" x="233.45" y="98.95" width="25.058" height="21.038"/>
			</defs>
			<clipPath id="SVGID_4_">
				<use xlink:href="#SVGID_3_"  overflow="visible"/>
			</clipPath>
			
				<path clip-path="url(#SVGID_4_)" fill="#FFFFFF" stroke="#C94F50" stroke-linecap="round" stroke-linejoin="round" stroke-miterlimit="10" d="
				M244.871,110.061c0.466,0,0.907,0.196,1.311,0.547c0.403-0.352,0.845-0.547,1.309-0.547c1.906,0,3.453,3.298,3.453,7.365
				c0,4.069-1.547,7.367-3.453,7.367c-0.464,0-0.905-0.196-1.309-0.548c-0.403,0.352-0.845,0.548-1.311,0.548
				c-1.904,0-3.451-3.297-3.451-7.367C241.42,113.359,242.967,110.061,244.871,110.061z"/>
		</g>
		
			<circle fill="#FFFFFF" stroke="#C94F50" stroke-linecap="round" stroke-linejoin="round" stroke-miterlimit="10" cx="245.956" cy="105.702" r="5.659"/>
		
			<line fill="none" stroke="#C94F50" stroke-linecap="round" stroke-miterlimit="10" x1="241.687" y1="119.633" x2="250.56" y2="119.633"/>
	</g>
	<g id="student_2">
		<g>
			<defs>
				<rect id="SVGID_5_" x="271.45" y="98.95" width="25.058" height="21.038"/>
			</defs>
			<clipPath id="SVGID_6_">
				<use xlink:href="#SVGID_5_"  overflow="visible"/>
			</clipPath>
			
				<path clip-path="url(#SVGID_6_)" fill="#FFFFFF" stroke="#C94F50" stroke-linecap="round" stroke-linejoin="round" stroke-miterlimit="10" d="
				M282.871,110.061c0.466,0,0.907,0.196,1.311,0.547c0.403-0.352,0.845-0.547,1.309-0.547c1.906,0,3.453,3.298,3.453,7.365
				c0,4.069-1.547,7.367-3.453,7.367c-0.464,0-0.905-0.196-1.309-0.548c-0.403,0.352-0.845,0.548-1.311,0.548
				c-1.904,0-3.451-3.297-3.451-7.367C279.42,113.359,280.967,110.061,282.871,110.061z"/>
		</g>
		
			<circle fill="#FFFFFF" stroke="#C94F50" stroke-linecap="round" stroke-linejoin="round" stroke-miterlimit="10" cx="283.956" cy="105.702" r="5.659"/>
		
			<line fill="none" stroke="#C94F50" stroke-linecap="round" stroke-miterlimit="10" x1="279.687" y1="119.633" x2="288.56" y2="119.633"/>
	</g>
	<g id="student_3">
		<g>
			<defs>
				<rect id="SVGID_7_" x="252.45" y="98.95" width="25.058" height="21.038"/>
			</defs>
			<clipPath id="SVGID_8_">
				<use xlink:href="#SVGID_7_"  overflow="visible"/>
			</clipPath>
			
				<path clip-path="url(#SVGID_8_)" fill="#FFFFFF" stroke="#C94F50" stroke-linecap="round" stroke-linejoin="round" stroke-miterlimit="10" d="
				M263.871,110.061c0.466,0,0.907,0.196,1.311,0.547c0.403-0.352,0.845-0.547,1.309-0.547c1.906,0,3.453,3.298,3.453,7.365
				c0,4.069-1.547,7.367-3.453,7.367c-0.464,0-0.905-0.196-1.309-0.548c-0.403,0.352-0.845,0.548-1.311,0.548
				c-1.904,0-3.451-3.297-3.451-7.367C260.42,113.359,261.967,110.061,263.871,110.061z"/>
		</g>
		
			<circle fill="#FFFFFF" stroke="#C94F50" stroke-linecap="round" stroke-linejoin="round" stroke-miterlimit="10" cx="264.956" cy="105.702" r="5.659"/>
		
			<line fill="none" stroke="#C94F50" stroke-linecap="round" stroke-miterlimit="10" x1="260.687" y1="119.633" x2="269.56" y2="119.633"/>
	</g>
	<g id="student_4_1_">
		<g>
			<defs>
				<rect id="SVGID_9_" x="290.45" y="98.95" width="25.058" height="21.038"/>
			</defs>
			<clipPath id="SVGID_10_">
				<use xlink:href="#SVGID_9_"  overflow="visible"/>
			</clipPath>
			
				<path clip-path="url(#SVGID_10_)" fill="#FFFFFF" stroke="#C94F50" stroke-linecap="round" stroke-linejoin="round" stroke-miterlimit="10" d="
				M301.871,110.061c0.466,0,0.907,0.196,1.311,0.547c0.403-0.352,0.845-0.547,1.309-0.547c1.906,0,3.453,3.298,3.453,7.365
				c0,4.069-1.547,7.367-3.453,7.367c-0.464,0-0.905-0.196-1.309-0.548c-0.403,0.352-0.845,0.548-1.311,0.548
				c-1.904,0-3.451-3.297-3.451-7.367C298.42,113.359,299.967,110.061,301.871,110.061z"/>
		</g>
		
			<circle fill="#FFFFFF" stroke="#C94F50" stroke-linecap="round" stroke-linejoin="round" stroke-miterlimit="10" cx="302.956" cy="105.702" r="5.659"/>
		
			<line fill="none" stroke="#C94F50" stroke-linecap="round" stroke-miterlimit="10" x1="298.687" y1="119.633" x2="307.56" y2="119.633"/>
	</g>
	<g id="teacher">
		<g>
			<defs>
				<rect id="SVGID_11_" x="239.792" y="58.852" width="25.058" height="21.833"/>
			</defs>
			<clipPath id="SVGID_12_">
				<use xlink:href="#SVGID_11_"  overflow="visible"/>
			</clipPath>
			
				<path clip-path="url(#SVGID_12_)" fill="#FFFFFF" stroke="#29A8E0" stroke-linecap="round" stroke-linejoin="round" stroke-miterlimit="10" d="
				M251.213,69.758c0.466,0,0.907,0.196,1.311,0.547c0.403-0.352,0.845-0.547,1.309-0.547c1.906,0,3.453,3.298,3.453,7.365
				c0,4.069-1.547,7.367-3.453,7.367c-0.464,0-0.905-0.196-1.309-0.548c-0.403,0.352-0.845,0.548-1.311,0.548
				c-1.904,0-3.451-3.297-3.451-7.367C247.762,73.057,249.309,69.758,251.213,69.758z"/>
			
				<circle clip-path="url(#SVGID_12_)" fill="#FFFFFF" stroke="#29A8E0" stroke-linecap="round" stroke-linejoin="round" stroke-miterlimit="10" cx="252.297" cy="65.399" r="5.659"/>
		</g>
		<rect x="266.509" y="59.018" fill="none" width="18.667" height="9.507"/>
		<text transform="matrix(1 0 0 1 268.3428 61.8579)"><tspan x="0" y="0" font-family="'MyriadPro-Regular'" font-size="4">What is a </tspan><tspan x="-0.068" y="4.8" font-family="'MyriadPro-Regular'" font-size="4">Website?</tspan></text>
		<rect x="266.676" y="71.352" fill="none" width="19.5" height="3.667"/>
		<text transform="matrix(1 0 0 1 271.0625 72.7715)" font-family="'MyriadPro-Regular'" font-size="2">with Andrew</text>
	</g>
	<g id="teacher_1_">
		<g>
			<defs>
				<rect id="SVGID_13_" x="214.941" y="86.571" width="13.971" height="11.729"/>
			</defs>
			<clipPath id="SVGID_14_">
				<use xlink:href="#SVGID_13_"  overflow="visible"/>
			</clipPath>
			
				<path clip-path="url(#SVGID_14_)" fill="#FFFFFF" stroke="#2BB673" stroke-linecap="round" stroke-linejoin="round" stroke-miterlimit="10" d="
				M221.309,92.766c0.26,0,0.506,0.109,0.731,0.305c0.225-0.196,0.471-0.305,0.729-0.305c1.062,0,1.925,1.839,1.925,4.106
				c0,2.269-0.862,4.107-1.925,4.107c-0.259,0-0.505-0.109-0.729-0.306c-0.226,0.196-0.472,0.306-0.731,0.306
				c-1.062,0-1.924-1.838-1.924-4.107C219.385,94.604,220.247,92.766,221.309,92.766z"/>
		</g>
		
			<circle fill="#FFFFFF" stroke="#2BB673" stroke-linecap="round" stroke-linejoin="round" stroke-miterlimit="10" cx="221.914" cy="90.335" r="3.155"/>
		
			<line fill="none" stroke="#2BB673" stroke-linecap="round" stroke-miterlimit="10" x1="219.533" y1="98.103" x2="224.48" y2="98.103"/>
		
			<line fill="none" stroke="#58595B" stroke-linecap="round" stroke-miterlimit="10" x1="217.509" y1="92.436" x2="217.509" y2="98.95"/>
		
			<line fill="none" stroke="#58595B" stroke-linecap="round" stroke-miterlimit="10" x1="217.509" y1="98.95" x2="225.068" y2="98.95"/>
		
			<line fill="none" stroke="#58595B" stroke-linecap="round" stroke-miterlimit="10" x1="217.509" y1="98.95" x2="217.509" y2="102.341"/>
		
			<line fill="none" stroke="#58595B" stroke-linecap="round" stroke-miterlimit="10" x1="225.068" y1="98.95" x2="225.068" y2="102.341"/>
		
			<line fill="none" stroke="#000000" stroke-linecap="round" stroke-miterlimit="10" x1="232.551" y1="90.335" x2="231.801" y2="94.561"/>
		
			<line fill="none" stroke="#000000" stroke-linecap="round" stroke-miterlimit="10" x1="231.801" y1="94.561" x2="226.845" y2="94.561"/>
	</g>
</g>
</svg>
