<?xml version="1.0" encoding="utf-8"?>
<!-- Generator: Adobe Illustrator 16.0.0, SVG Export Plug-In . SVG Version: 6.00 Build 0)  -->
<!DOCTYPE svg PUBLIC "-//W3C//DTD SVG 1.1//EN" "http://www.w3.org/Graphics/SVG/1.1/DTD/svg11.dtd">
<svg version="1.1"
	 id="svg6304" xmlns:dc="http://purl.org/dc/elements/1.1/" xmlns:cc="http://creativecommons.org/ns#" xmlns:rdf="http://www.w3.org/1999/02/22-rdf-syntax-ns#" xmlns:svg="http://www.w3.org/2000/svg" xmlns:sodipodi="http://sodipodi.sourceforge.net/DTD/sodipodi-0.dtd" xmlns:inkscape="http://www.inkscape.org/namespaces/inkscape" sodipodi:docname="logo.svg" inkscape:version="0.91 r"
	 xmlns="http://www.w3.org/2000/svg" xmlns:xlink="http://www.w3.org/1999/xlink" x="0px" y="0px" width="257.953px"
	 height="257.953px" viewBox="0 0 257.953 257.953" enable-background="new 0 0 257.953 257.953" xml:space="preserve">
<sodipodi:namedview  showguides="true" showgrid="false" inkscape:cy="58.478303" inkscape:cx="306.05912" inkscape:zoom="0.86679688" borderopacity="1.0" bordercolor="#666666" pagecolor="#ffffff" id="base" inkscape:guide-bbox="true" inkscape:window-maximized="0" inkscape:window-y="0" inkscape:current-layer="layer1" inkscape:window-x="799" inkscape:pageshadow="2" inkscape:document-units="px" inkscape:pageopacity="0.0" inkscape:window-height="848" inkscape:window-width="799">
	<sodipodi:guide  orientation="1,0" position="161.5141,99.215802" id="guide3349"></sodipodi:guide>
</sodipodi:namedview>
<rect id="rect4252-2-8-2-2-0-9-2-4-6-0" x="103.444" y="126.21" inkscape:export-filename="C:\Users\dlee\Desktop\School Shaped\schoolshaped30.png" inkscape:export-ydpi="90" inkscape:export-xdpi="90" fill="#EF4F79" width="53.934" height="32.123">
</rect>
<path id="path6037-4-5-6" inkscape:connector-curvature="0" inkscape:export-filename="C:\Users\dlee\Desktop\School Shaped\schoolshaped30.png" inkscape:export-ydpi="90" inkscape:export-xdpi="90" fill="#FFFD82" d="
	M132.259,226.121v-22.444l23.394-11.532l23.393-11.533v22.532v22.532l-23.169,11.444c-12.743,6.295-23.271,11.445-23.394,11.445
	S132.259,238.466,132.259,226.121z"/>
<path id="path4711-7-9-0-8-5-6-7-3-3-4-9-6-3-0-1-1" inkscape:connector-curvature="0" inkscape:export-filename="C:\Users\dlee\Desktop\School Shaped\schoolshaped30.png" inkscape:export-ydpi="90" inkscape:export-xdpi="90" fill="none" stroke="#000000" stroke-width="10" d="
	M77.502,176.172v51.432l52.018,25.715l52.018-25.715v-51.432l-52.018-25.715L77.502,176.172z"/>
<path id="path4713-8-3-8-0-9-3-4-1-5-3-9-1-9-6-0-8" inkscape:connector-curvature="0" inkscape:export-filename="C:\Users\dlee\Desktop\School Shaped\schoolshaped30.png" inkscape:export-ydpi="90" inkscape:export-xdpi="90" fill="none" stroke="#000000" stroke-width="10" d="
	M77.502,176.172l52.018,25.716l52.018-25.716l0,0"/>
<path id="path4715-4-7-1-2-7-6-0-7-5-7-7-8-2-0-8-2" inkscape:connector-curvature="0" inkscape:export-filename="C:\Users\dlee\Desktop\School Shaped\schoolshaped30.png" inkscape:export-ydpi="90" inkscape:export-xdpi="90" fill="none" stroke="#000000" stroke-width="10" d="
	M129.519,201.887v51.431"/>
<path id="path6035-6-3-9" inkscape:connector-curvature="0" inkscape:export-filename="C:\Users\dlee\Desktop\School Shaped\schoolshaped30.png" inkscape:export-ydpi="90" inkscape:export-xdpi="90" fill="#FFFD82" d="
	M132.575,81.447V55.554l16.427,14.58c9.034,8.02,17.284,15.347,18.334,16.283c1.049,0.936,1.812,1.783,1.695,1.884
	c-0.116,0.1-6.983,3.672-15.261,7.938c-8.276,4.266-16.432,8.508-18.122,9.428l-3.073,1.672V81.447L132.575,81.447z"/>
<path id="path5150-4-7-7-6-7-8-0-9-9-3-0-7" sodipodi:nodetypes="ccccccc" inkscape:connector-curvature="0" inkscape:export-filename="C:\Users\dlee\Desktop\School Shaped\schoolshaped30.png" inkscape:export-ydpi="90" inkscape:export-xdpi="90" fill="none" stroke="#000000" stroke-width="10" d="
	M82.637,91.914l47.585,20.507l45.576-23.645l-1.509-1.382l-44.416-39.393L81.217,91.317L82.637,91.914z"/>
<path id="path4715-4-7-1-2-1-7-6-6-2-8-0-5-3-6-8-4-9" inkscape:connector-curvature="0" inkscape:export-filename="C:\Users\dlee\Desktop\School Shaped\schoolshaped30.png" inkscape:export-ydpi="90" inkscape:export-xdpi="90" fill="none" stroke="#000000" stroke-width="10" d="
	M129.168,53.134v56.84"/>
<path id="path4994-0-8-3-7-4-1-5-7-8-6-1-9-63-4-3" inkscape:connector-curvature="0" inkscape:export-filename="C:\Users\dlee\Desktop\School Shaped\schoolshaped30.png" inkscape:export-ydpi="90" inkscape:export-xdpi="90" fill="#EF4F79" stroke="#000000" stroke-width="10" d="
	M101.957,152.954c-7.929-7.654-7.921-20.056,0.017-27.701c7.938-7.645,20.799-7.638,28.728,0.017"/>
<path id="path4721-5-7-1-7-1-7-2-2-0-1-1-9-1-4-1-9-6" inkscape:connector-curvature="0" inkscape:export-filename="C:\Users\dlee\Desktop\School Shaped\schoolshaped30.png" inkscape:export-ydpi="90" inkscape:export-xdpi="90" fill="#EF4F79" stroke="#000000" stroke-width="10" d="
	M129.381,125.147c7.892-7.688,20.753-7.753,28.728-0.144c7.974,7.609,8.041,20.012,0.149,27.7"/>
<path id="rect4719-5-2-8-9-7-7-4-5-8-3-1-1-7-4-5-3" sodipodi:nodetypes="ccc" inkscape:connector-curvature="0" inkscape:export-filename="C:\Users\dlee\Desktop\School Shaped\schoolshaped30.png" inkscape:export-ydpi="90" inkscape:export-xdpi="90" fill="none" stroke="#000000" stroke-width="10" d="
	M158.585,152.41l-28.591,27.568l-28.591-27.568"/>
<polygon id="rect4933-0-0-1-0-6-3-9-6-8-9-4-1-9-4-8" inkscape:export-filename="C:\Users\dlee\Desktop\School Shaped\schoolshaped30.png" inkscape:export-ydpi="90" inkscape:export-xdpi="90" points="
	126.356,126.637 129.973,123.15 133.59,126.637 129.973,130.125 ">
</polygon>
<path id="path5086-0-6-6-6-8-1-6-3-5-4-0-3-2" sodipodi:nodetypes="cccc" inkscape:connector-curvature="0" inkscape:export-filename="C:\Users\dlee\Desktop\School Shaped\schoolshaped30.png" inkscape:export-ydpi="90" inkscape:export-xdpi="90" fill="#EF4F79" d="
	M109.884,155.107l20.129,19.544l19.553-19.063C151.233,150.586,125.249,133.913,109.884,155.107z"/>
<path id="path5190-2-6-3-3-1-0-8-0-7-5-8-7" sodipodi:nodetypes="ccccc" inkscape:connector-curvature="0" inkscape:export-filename="C:\Users\dlee\Desktop\School Shaped\schoolshaped30.png" inkscape:export-ydpi="90" inkscape:export-xdpi="90" fill="#FFFD82" stroke="#000000" stroke-width="10" d="
	M129.734,50.908l0.391-36.952l25.049-4.595l-0.049,19.23l-25.107,5.771"/>
<path id="path5188-6-0-3-4-7-7-0-8-9-1-9-9" sodipodi:nodetypes="cccc" inkscape:connector-curvature="0" inkscape:export-filename="C:\Users\dlee\Desktop\School Shaped\schoolshaped30.png" inkscape:export-ydpi="90" inkscape:export-xdpi="90" fill="none" stroke="#000000" stroke-width="10" d="
	M93.902,237.271v-19.94c-0.435-16.703,14.396-14.706,14.85,7.071l-0.142,20.789"/>
</svg>
